<?xml version="1.0" encoding="utf-8"?>
<!-- Generator: Adobe Illustrator 16.0.0, SVG Export Plug-In . SVG Version: 6.00 Build 0)  -->
<!DOCTYPE svg PUBLIC "-//W3C//DTD SVG 1.1//EN" "http://www.w3.org/Graphics/SVG/1.1/DTD/svg11.dtd">
<svg version="1.1" id="Layer_1" xmlns="http://www.w3.org/2000/svg" xmlns:xlink="http://www.w3.org/1999/xlink" x="0px" y="0px"
	 width="656px" height="195px" viewBox="0 0 656 195" enable-background="new 0 0 656 195" xml:space="preserve">
<g>
	<g>
		<path fill="#B7C68D" d="M125.673,105.628c1.682-3.183,0.517-8.081,2.612-10.446C152.33,68.038,174.378,50,192.801,43.07
			c5.499-2.069,13.198,0.956,6.43,7.581c-22.055,20.136-43.642,41.208-64.734,63.267c0.152,2.766-2.189,4.775-4.823,4.754
			c-23.45,24.188-45.638,48.785-67.652,73.458c-8.494,9.521-22.298-7.021-13.057-15.015c24.25-20.977,49.025-41.995,73.119-65.938
			C121.286,107.917,122.661,106.193,125.673,105.628"/>
		<g>
			<path fill="#00755C" d="M126.924,74.358c-0.988-20.529-12.071-73.562-12.071-73.562H76.572c0,0-11.234,53.033-12.224,73.562
				c-0.988,20.529,5.868,27.783,14.998,32.652c6.378,3.401,12.337,3.844,13.326,6.696c0.377,1.088,0.532,8.751,0.579,17.802h-0.016
				c0.008,0.363,0.015,0.709,0.021,1.049c0.062,14.461-0.133,31.901-0.133,31.901h0.005c-0.051,5.422-0.113,11.935-0.188,19.862
				c0,0-1.027,3.56-5.141,4.152c-4.113,0.594-17.803,0.9-20.22,2.373c-1.71,1.043-0.344,4.153-0.344,4.153h56.892
				c0,0,1.388-3.254-0.343-4.153c-2.747-1.426-16.108-1.779-20.223-2.373c-4.11-0.594-5.14-4.152-5.14-4.152
				s-0.157-9.146-0.329-19.862h0.018c0,0-0.5-47.901,0.488-50.752c0.988-2.853,8.423-2.876,14.195-6.838
				C120.023,101.908,127.912,94.887,126.924,74.358"/>
		</g>
		<g>
			<path fill="#6FA760" d="M16.294,47.356c-1.307-1.141-1.707-0.891-2.091-0.56c-0.423,0.463-0.621,1.015,0.815,2.441l28.333,29.429
				c1.795,1.783,1.904,2.691,1.171,3.32c-0.629,0.732-1.537,0.624-3.319-1.171l-29.43-28.333c-1.458-1.404-1.977-1.238-2.273-0.992
				c-0.246,0.297-0.445,0.848,0.992,2.275l28.333,29.428c1.795,1.783,1.902,2.691,1.171,3.32c-0.629,0.733-1.537,0.625-3.32-1.17
				L7.247,57.009c-1.459-1.404-1.979-1.237-2.274-0.991c-0.246,0.296-0.446,0.848,0.991,2.274l28.334,29.429
				c1.795,1.783,1.903,2.691,1.17,3.32c-0.629,0.732-1.537,0.624-3.32-1.171L2.72,61.537c-1.459-1.405-1.978-1.238-2.442-0.816
				c-0.331,0.383-0.58,0.785,0.561,2.091l37.077,37.901c7.886,7.996,12.881-0.062,20.761,7.744
				c26.438,26.195,48.59,55.123,72.257,83.044c4.439,5.237,9.71,3.876,14.656,0.606c3.27-4.946,4.631-10.219-0.606-14.656
				c-27.921-23.667-56.849-45.819-83.043-72.258c-7.808-7.879,0.251-12.875-7.745-20.76L16.294,47.356"/>
		</g>
	</g>
</g>
<path d="M513.093,149.078c0-0.271,0.003-0.544,0-0.814c-0.013-1.064-0.505-1.773-1.604-1.785c-1.124-0.01-1.577,0.711-1.557,1.783
	c0.012,0.543,0.004,1.086,0,1.631c-0.005,1.002,0.284,1.896,1.413,1.965c1.274,0.074,1.669-0.858,1.743-1.963
	C513.109,149.623,513.093,149.35,513.093,149.078"/>
<path d="M287.588,119.716c-6.063,3.979-12.514,3.882-18.993,1.878c-7.434-2.297-11.842-8.753-11.938-17.146
	c-0.096-8.292-0.024-16.583-0.024-24.875c0-4.009-0.046-8.019,0.019-12.027c0.052-3.166,2.029-4.931,5.064-4.679
	c2.185,0.181,3.72,1.567,4.05,3.764c0.121,0.804,0.069,1.636,0.07,2.455c0.004,11.299,0.002,22.597,0.006,33.896
	c0.001,4.306,1.812,7.658,5.681,9.545c7.253,3.535,16.334-0.676,16.277-9.811c-0.069-11.024-0.016-22.05-0.014-33.075
	c0-0.82-0.028-1.643,0.028-2.459c0.193-2.743,1.915-4.343,4.612-4.326c2.672,0.016,4.356,1.645,4.541,4.42
	c0.043,0.635,0.013,1.275,0.013,1.913c0,15.763,0,31.526,0,47.289c0,0.457,0.01,0.912-0.004,1.367c-0.073,2.551-0.991,3.98-3,4.684
	c-2.047,0.717-4.081,0.097-5.591-1.721C288.101,120.466,287.858,120.089,287.588,119.716 M566.529,65.882
	c-0.182-0.211-0.369-0.405-0.53-0.619c-1.688-2.234-3.576-2.934-5.897-2.18c-2.071,0.673-3.026,2.168-3.054,4.92
	c-0.029,3.008-0.008,6.017-0.008,9.026c0.001,13.676-0.016,27.352,0.019,41.028c0.009,2.957,1.755,4.711,4.487,4.762
	c2.729,0.05,4.552-1.696,4.693-4.594c0.076-1.547,0.02-3.101,0.021-4.649c0.001-10.302,0.003-20.605,0.002-30.907
	c0-4.085,1.687-7.267,5.263-9.252c7.023-3.9,16.857,0.054,16.776,9.566c-0.085,10.119-0.021,20.241-0.019,30.36
	c0,1.733-0.07,3.469,0.026,5.196c0.145,2.569,1.897,4.202,4.43,4.276c2.413,0.07,4.171-1.36,4.569-3.805
	c0.132-0.803,0.118-1.635,0.118-2.453c0.007-10.939,0.03-21.882-0.019-32.823c-0.01-2.087-0.155-4.203-0.521-6.255
	c-0.986-5.525-3.809-9.966-8.938-12.367C580.872,61.802,573.717,61.645,566.529,65.882 M319.233,64.868
	c-0.318-0.28-0.595-0.505-0.851-0.753c-1.577-1.53-3.433-1.61-5.323-0.847c-1.896,0.764-2.688,2.352-2.729,4.346
	c-0.012,0.546-0.011,1.093-0.011,1.64c-0.001,15.671-0.002,31.344,0.001,47.016c0.001,0.818-0.024,1.647,0.079,2.457
	c0.327,2.545,2.15,4.131,4.63,4.094c2.51-0.036,4.248-1.643,4.503-4.221c0.08-0.812,0.046-1.639,0.046-2.457
	c0.003-11.754-0.007-23.508,0.019-35.263c0.003-1.266,0.102-2.55,0.335-3.792c0.463-2.477,2.007-3.997,4.439-4.658
	c3.306-0.896,6.291-0.554,8.845,1.984c1.501,1.492,3.271,2.323,5.452,1.542c2.861-1.024,3.804-4.177,1.986-7.019
	c-1.966-3.074-4.873-4.907-8.398-5.637C327.783,62.375,323.388,62.583,319.233,64.868 M407.704,120.047
	c0.572,0.116,0.867,0.098,1.066,0.229c3.623,2.356,7.674,2.791,11.827,2.488c10.65-0.771,18.196-8.877,18.227-19.508
	c0.021-7.021,0.034-14.043-0.003-21.063c-0.053-9.706-7.275-17.984-16.877-19.186c-4.972-0.623-9.831-0.202-14.071,3.054
	c-0.333-0.469-0.532-0.763-0.744-1.048c-1.497-2.012-3.487-2.676-5.736-1.917c-1.916,0.646-2.775,1.981-2.869,4.468
	c-0.014,0.365-0.005,0.73-0.005,1.094c0,24.62-0.001,49.238,0.004,73.857c0,0.729-0.033,1.471,0.09,2.182
	c0.542,3.143,3.922,4.726,6.729,3.203c1.957-1.062,2.384-2.812,2.375-4.854c-0.027-6.747-0.011-13.494-0.011-20.242
	C407.704,121.932,407.704,121.055,407.704,120.047 M407.712,82.248c0.061-6.255,4.175-10.202,10.646-10.258
	c6.438-0.056,11.149,4.095,11.243,10.144c0.111,7.112,0.097,14.227,0.007,21.341c-0.071,5.703-4.362,10.028-10.057,10.162
	c-1.793,0.043-3.683-0.115-5.38-0.648c-4.077-1.28-6.383-4.568-6.45-8.854c-0.061-3.736-0.014-7.478-0.014-11.217
	C407.705,89.361,407.678,85.804,407.712,82.248z M533.394,118.369c0.374,0.341,0.726,0.619,1.027,0.941
	c2.049,2.185,4.716,3.064,7.558,3.457c2.412,0.332,4.345-1.074,4.918-3.369c0.572-2.293-0.511-4.387-2.755-5.272
	c-0.507-0.2-1.049-0.308-1.568-0.474c-1.567-0.502-2.384-1.623-2.53-3.223c-0.084-0.904-0.08-1.82-0.081-2.729
	c-0.006-8.843,0.049-17.685-0.021-26.527c-0.062-8.091-5.215-15.093-12.942-17.426c-5.307-1.603-10.648-1.372-15.781,0.834
	c-4.389,1.886-7.438,5.19-9.319,9.547c-0.902,2.089-0.468,3.945,1.031,5.233c1.469,1.263,3.725,1.61,5.356,0.595
	c0.812-0.504,1.562-1.297,2.029-2.133c2.46-4.403,6.21-6.118,11.146-5.854c5.943,0.317,9.439,3.938,9.298,9.872
	c-0.048,1.974-0.416,2.633-2.3,3.212c-1.734,0.535-3.548,0.81-5.315,1.243c-4.326,1.06-8.771,1.799-12.942,3.298
	c-7.521,2.702-10.568,7.482-10.558,15.414c0.013,7.852,3.925,13.678,11.35,16.286c7.444,2.616,14.694,2.308,21.396-2.368
	C532.675,118.727,533,118.585,533.394,118.369 M530.59,104.777c-0.391,4.035-2.828,6.895-6.646,8.23
	c-3.549,1.242-7.188,1.076-10.605-0.602c-3.179-1.559-4.495-4.241-4.508-7.764c-0.012-3.371,1.752-5.406,4.554-6.799
	c0.811-0.404,1.658-0.762,2.525-1.013c1.569-0.452,3.151-0.876,4.755-1.188c3.194-0.624,6.406-1.164,9.996-1.808
	C530.659,97.731,530.928,101.283,530.59,104.777z M642.101,118.372c2.157,2.603,4.923,3.86,8.085,4.335
	c2.62,0.395,4.764-0.898,5.29-3.172c0.616-2.655-0.482-4.61-3.117-5.542c-3.332-1.181-3.768-1.747-3.776-5.343
	c-0.02-8.475-0.003-16.946-0.011-25.42c-0.001-1.092-0.017-2.188-0.104-3.276c-0.475-5.918-3.264-10.485-8.062-13.931
	c-6.318-4.539-18.021-4.272-24.217,0.687c-2.546,2.037-4.49,4.529-5.723,7.534c-0.85,2.072-0.357,3.964,1.163,5.202
	c1.501,1.222,3.784,1.51,5.368,0.457c0.798-0.531,1.504-1.344,1.983-2.182c2.438-4.261,6.097-5.985,10.933-5.754
	c5.984,0.286,9.459,3.77,9.452,9.733c-0.002,2.04-0.472,2.733-2.442,3.421c-0.771,0.269-1.576,0.455-2.378,0.614
	c-2.948,0.582-5.913,1.081-8.85,1.716c-3.933,0.849-7.77,1.994-11.152,4.285c-3.691,2.501-5.862,5.927-6.176,10.418
	c-0.106,1.539-0.14,3.096-0.04,4.634c0.4,6.173,3.491,10.676,8.923,13.448c6.428,3.279,13.112,3.548,19.831,0.893
	C638.753,120.469,640.261,119.398,642.101,118.372 M638.963,106.006c-0.812,3.508-3.154,5.95-6.582,7.062
	c-3.381,1.096-6.82,0.966-10.111-0.5c-3.366-1.498-4.826-4.256-4.867-7.834c-0.039-3.412,1.772-5.6,4.758-6.965
	c0.165-0.075,0.334-0.142,0.5-0.216c2.968-1.318,13.14-3.434,16.688-3.409C639.334,98.102,639.865,102.098,638.963,106.006z
	 M216.905,97.124c-0.994,0-1.99,0-3.314,0c0,2.912-0.271,5.474,0.06,7.955c0.563,4.229,3.853,7.616,7.97,8.362
	c4.575,0.83,8.752,0.094,11.706-3.977c0.585-0.806,0.988-1.738,1.513-2.592c1.248-2.035,3.27-2.76,5.39-1.958
	c2.116,0.799,3.396,3.036,2.934,5.271c-0.146,0.703-0.459,1.383-0.776,2.033c-3.772,7.77-11.965,11.768-21.291,10.409
	c-9.944-1.448-16.843-9.381-16.866-19.422c-0.016-6.927-0.021-13.854,0.001-20.781c0.036-11.04,8.562-19.507,19.61-19.591
	c3.136-0.023,6.211,0.203,9.083,1.531c7.405,3.426,11.249,9.303,11.624,17.403c0.156,3.365,0.063,6.744,0.018,10.116
	c-0.046,3.459-1.777,5.209-5.237,5.226C231.853,97.149,224.379,97.124,216.905,97.124 M213.513,88.352c7.384,0,14.364,0,21.842,0
	c0-2.318,0.094-4.39-0.018-6.45c-0.271-4.949-3.889-8.955-8.731-9.802c-5.247-0.918-10.233,1.535-12.254,6.059
	C212.879,81.457,213.54,84.861,213.513,88.352z M459.825,97.124c1.227,0,2.128,0,3.03,0c7.562,0,15.126,0.025,22.688-0.013
	c3.491-0.017,5.218-1.744,5.258-5.189c0.04-3.462,0.117-6.93-0.018-10.387c-0.255-6.517-3.061-11.72-8.446-15.454
	c-3.663-2.539-7.783-3.302-12.188-3.255c-11.095,0.117-19.562,8.459-19.632,19.554c-0.043,6.925-0.06,13.851,0.007,20.776
	c0.076,8.132,3.659,14.345,11.075,17.691c7.688,3.471,15.295,2.877,22.17-2.394c2.578-1.978,4.409-4.614,5.479-7.696
	c0.798-2.302-0.323-4.736-2.471-5.716c-2.25-1.026-4.431-0.261-5.779,2.041c-0.416,0.706-0.75,1.467-1.222,2.131
	c-2.962,4.165-6.821,5.091-11.851,4.231c-4.221-0.721-7.51-4.225-8.048-8.598C459.584,102.447,459.825,99.979,459.825,97.124
	 M460.03,80.021c1.235-5.351,5.946-8.463,11.974-8.016c5.142,0.382,9.291,4.59,9.581,9.832c0.113,2.064,0.018,4.14,0.018,6.477
	c-7.289,0.302-14.332,0.059-21.691,0.158C459.623,85.395,459.412,82.688,460.03,80.021z M387.519,92.969c0.057,0,0.111,0,0.167,0
	c0-3.096,0.065-6.194-0.023-9.288c-0.055-1.903-0.168-3.836-0.559-5.692c-1.777-8.487-9.764-15.492-20.001-15.203
	c-11.32,0.319-19.69,8.324-19.797,19.652c-0.065,7.011-0.104,14.026,0.042,21.035c0.046,2.236,0.414,4.569,1.162,6.67
	c3.119,8.766,11.715,13.685,21.582,12.573c9.604-1.079,16.596-8.075,17.374-17.739C387.785,100.999,387.519,96.974,387.519,92.969
	 M378.494,102.389c-0.044,2.789-0.647,5.407-2.529,7.621c-3.328,3.916-8.43,4.414-12.51,3.077c-4.243-1.392-6.869-5.058-6.937-9.81
	c-0.097-6.93-0.118-13.863,0.003-20.792c0.105-6.007,4.307-10.259,10.066-10.493c6.548-0.266,11.145,3.338,11.713,9.616
	c0.336,3.706,0.062,7.467,0.062,11.203c0.048,0,0.095,0,0.144,0.001C378.506,96.004,378.544,99.197,378.494,102.389z
	 M566.529,65.882c-0.182-0.211-0.369-0.405-0.53-0.619c-1.688-2.234-3.576-2.934-5.897-2.18c-2.071,0.673-3.026,2.168-3.054,4.92
	c-0.029,3.008-0.008,6.017-0.008,9.026c0.001,13.676-0.016,27.352,0.019,41.028c0.009,2.957,1.755,4.711,4.487,4.762
	c2.729,0.05,4.552-1.696,4.693-4.594c0.076-1.547,0.02-3.101,0.021-4.649c0.001-10.302,0.003-20.605,0.002-30.907
	c0-4.085,1.687-7.267,5.263-9.252c7.023-3.9,16.857,0.054,16.776,9.566c-0.085,10.119-0.021,20.241-0.019,30.36
	c0,1.733-0.07,3.469,0.026,5.196c0.145,2.569,1.897,4.202,4.43,4.276c2.413,0.07,4.171-1.36,4.569-3.805
	c0.132-0.803,0.118-1.635,0.118-2.453c0.007-10.939,0.03-21.882-0.019-32.823c-0.01-2.087-0.155-4.203-0.521-6.255
	c-0.986-5.525-3.809-9.966-8.938-12.367C580.872,61.802,573.717,61.645,566.529,65.882 M319.233,64.868
	c-0.318-0.28-0.595-0.505-0.851-0.753c-1.577-1.53-3.433-1.61-5.323-0.847c-1.896,0.764-2.688,2.352-2.729,4.346
	c-0.012,0.546-0.011,1.093-0.011,1.64c-0.001,15.671-0.002,31.344,0.001,47.016c0.001,0.818-0.024,1.647,0.079,2.457
	c0.327,2.545,2.15,4.131,4.63,4.094c2.51-0.036,4.248-1.643,4.503-4.221c0.08-0.812,0.046-1.639,0.046-2.457
	c0.003-11.754-0.007-23.508,0.019-35.263c0.003-1.266,0.102-2.55,0.335-3.792c0.463-2.477,2.007-3.997,4.439-4.658
	c3.306-0.896,6.291-0.554,8.845,1.984c1.501,1.492,3.271,2.323,5.452,1.542c2.861-1.024,3.804-4.177,1.986-7.019
	c-1.966-3.074-4.873-4.907-8.398-5.637C327.783,62.375,323.388,62.583,319.233,64.868"/>
<path d="M564.305,174.668c3.02,5.258,5.961,10.378,8.897,15.5c0.452,0.788,0.903,1.578,1.312,2.389
	c0.452,0.896,0.078,1.607-0.655,2.121c-0.835,0.584-1.582,0.262-2.141-0.459c-0.442-0.57-0.798-1.215-1.16-1.844
	c-2.497-4.335-4.98-8.678-7.48-13.01c-0.358-0.622-0.782-1.206-1.318-2.024c-1.809,1.822-3.519,3.537-5.218,5.261
	c-0.88,0.892-1.188,1.949-1.146,3.217c0.08,2.365,0.01,4.736,0.024,7.104c0.007,1.015-0.271,1.83-1.391,2.007
	c-0.922,0.146-1.66-0.688-1.771-1.951c-0.048-0.543-0.016-1.092-0.016-1.639c-0.001-13.754-0.002-27.508,0.003-41.262
	c0-0.816-0.148-1.717,0.142-2.426c0.218-0.53,1.039-1.127,1.578-1.115c0.48,0.012,1.148,0.738,1.359,1.293
	c0.244,0.641,0.091,1.436,0.091,2.165c0.003,8.47,0.002,16.94,0.002,25.411c0,0.878,0,1.756,0,3.062
	c0.727-0.502,1.124-0.685,1.399-0.98c4.777-5.116,9.536-10.252,14.312-15.369c0.366-0.395,0.796-0.91,1.261-0.987
	c0.631-0.104,1.546-0.06,1.924,0.326c0.365,0.375,0.443,1.358,0.223,1.901c-0.294,0.719-0.974,1.293-1.535,1.884
	c-2.32,2.438-4.668,4.853-6.98,7.297C565.465,173.129,564.996,173.805,564.305,174.668 M371.234,163.387
	c-0.271-1.146-0.307-2.644-1.949-2.429c-1.577,0.206-1.484,1.583-1.445,2.791c0.003,0.091,0,0.183,0,0.274
	c0,9.295-0.001,18.592,0.002,27.888c0,0.547-0.153,1.196,0.087,1.614c0.32,0.559,0.914,1.248,1.465,1.32
	c0.823,0.109,1.559-0.439,1.599-1.461c0.024-0.638,0.021-1.275,0.021-1.914c0.002-6.38-0.009-12.76,0.005-19.139
	c0.009-3.484,1.39-6.244,4.66-7.671c5.24-2.288,11.604,1.049,11.367,7.481c-0.244,6.645-0.062,13.305-0.05,19.957
	c0.005,1.936,0.626,2.959,1.765,2.799c1.699-0.239,1.396-1.644,1.397-2.787c0.015-6.744,0.034-13.489,0-20.233
	c-0.037-7.466-6.444-12.491-13.69-10.659C374.752,161.652,373.159,162.574,371.234,163.387 M525.075,163.277
	c-0.049-0.075-0.223-0.219-0.229-0.365c-0.045-1.143-0.486-2.078-1.73-1.965c-1.396,0.128-1.602,1.268-1.517,2.459
	c0.014,0.181,0.001,0.363,0.001,0.547c0,9.296,0,18.592,0.002,27.888c0,0.546-0.151,1.187,0.077,1.616
	c0.306,0.572,0.861,1.295,1.407,1.389c0.809,0.141,1.593-0.355,1.654-1.39c0.038-0.636,0.032-1.274,0.033-1.913
	c0.002-6.379-0.021-12.759,0.01-19.139c0.019-3.911,1.927-6.715,5.091-7.928c4.625-1.771,11.132,0.987,10.922,7.594
	c-0.204,6.466-0.046,12.941-0.041,19.412c0,0.729-0.168,1.555,0.117,2.154c0.263,0.553,1.03,1.174,1.582,1.182
	c0.473,0.006,1.019-0.77,1.405-1.291c0.178-0.242,0.063-0.707,0.063-1.071c0.002-7.108,0.09-14.22-0.025-21.326
	c-0.107-6.628-6.393-11.338-12.812-10.129C529.095,161.376,527.232,162.439,525.075,163.277 M212.143,164.339
	c1.65,0,2.912-0.015,4.174,0.005c1.141,0.018,2.052-0.354,2.116-1.604c0.072-1.361-0.917-1.586-2.027-1.572
	c-1.335,0.018-2.67,0.004-4.263,0.004c0-1.99-0.003-3.613,0.001-5.234c0.012-4.424,0.73-5.35,4.996-6.385
	c0.952-0.23,1.789-0.564,1.706-1.74c-0.084-1.19-0.941-1.377-1.94-1.422c-4.182-0.189-7.478,2.698-7.865,7.069
	c-0.16,1.81-0.037,3.642-0.082,5.462c-0.019,0.696-0.148,1.391-0.232,2.135c-1.011,0.053-1.877-0.062-2.621,0.188
	c-0.569,0.19-1.271,0.771-1.403,1.304c-0.214,0.857,0.33,1.596,1.304,1.732c0.884,0.125,1.784,0.146,2.963,0.234
	c0,1.09,0,2.073,0,3.057c0,7.926,0,15.852,0.002,23.775c0,0.729-0.161,1.531,0.092,2.164c0.229,0.566,0.911,1.293,1.415,1.311
	c0.522,0.02,1.295-0.627,1.548-1.174c0.281-0.606,0.115-1.428,0.116-2.155c0.004-7.927,0.002-15.853,0.002-23.776
	C212.143,166.729,212.143,165.74,212.143,164.339 M491.633,162.042c-0.271-0.185-0.488-0.339-0.71-0.483
	c-1.706-1.115-2.718-0.67-2.873,1.272c-0.028,0.362-0.009,0.728-0.009,1.092c0,9.281-0.002,18.562,0,27.843
	c0,0.547-0.005,1.094,0.024,1.639c0.054,1.013,0.783,1.562,1.607,1.443c0.551-0.08,1.21-0.762,1.442-1.33
	c0.257-0.627,0.097-1.432,0.097-2.158c0.004-7.461-0.021-14.924,0.014-22.385c0.016-3.166,1.717-4.84,4.86-4.998
	c2.037-0.101,3.71,0.58,5.08,2.113c0.625,0.7,1.416,0.775,2.163,0.083c0.729-0.675,0.833-1.517,0.144-2.159
	c-0.968-0.902-2.006-1.836-3.187-2.389C497.386,160.266,494.457,160.71,491.633,162.042 M509.929,177.95
	c0,4.554-0.002,9.108,0.001,13.663c0.001,0.637-0.154,1.354,0.084,1.89c0.253,0.567,0.878,1.324,1.363,1.341
	c0.537,0.02,1.285-0.599,1.602-1.139c0.281-0.484,0.121-1.241,0.121-1.878c0.006-9.291,0.004-18.582,0.002-27.873
	c-0.001-0.546,0.179-1.229-0.08-1.606c-0.409-0.596-1.068-1.228-1.721-1.359c-0.342-0.068-1.056,0.822-1.303,1.406
	c-0.229,0.543-0.068,1.256-0.068,1.893C509.928,168.841,509.929,173.395,509.929,177.95 M476.421,192.561
	c0.015,0.074,0.12,0.336,0.116,0.598c-0.017,1.15,0.647,1.762,1.678,1.688c1.03-0.076,1.555-0.834,1.507-1.916
	c-0.021-0.455,0.002-0.912,0.002-1.367c0-13.938,0.001-27.879-0.004-41.817c-0.001-0.726,0.046-1.478-0.122-2.171
	c-0.229-0.95-1.425-1.496-2.146-0.918c-0.476,0.381-0.843,1.179-0.858,1.8c-0.084,3.278-0.042,6.56-0.044,9.839
	c0,1.682,0,3.364,0,5.445c-0.942-0.609-1.442-0.965-1.974-1.268c-3.86-2.209-7.831-2.336-11.692-0.186
	c-3.717,2.068-5.529,5.378-5.493,9.682c0.035,4.1,0.122,8.203-0.02,12.299c-0.209,6.039,5.749,11.904,12.993,10.496
	C472.364,194.374,474.244,193.371,476.421,192.561 M460.56,171.812c-0.157-4.178,2.854-7.586,7.404-7.822
	c4.599-0.241,8.3,2.812,8.524,7.351c0.217,4.366,0.186,8.757,0.004,13.126c-0.148,3.6-2.593,6.188-6.181,7.098
	c-3.296,0.834-6.763-0.401-8.553-3.328c-0.678-1.108-1.024-2.532-1.136-3.846c-0.182-2.172-0.049-4.371-0.049-6.561
	C460.573,175.824,460.636,173.816,460.56,171.812z M416.775,192.26c0.153,0.5,0.269,0.747,0.302,1.006
	c0.146,1.086,0.82,1.713,1.84,1.584c1.054-0.135,1.444-0.98,1.348-2.031c-0.032-0.361-0.002-0.729-0.002-1.094
	c0-14.027,0-28.057-0.001-42.084c0-0.547-0.005-1.094-0.021-1.64c-0.03-0.993-0.586-1.53-1.542-1.522
	c-0.945,0.01-1.513,0.56-1.577,1.529c-0.036,0.545-0.03,1.094-0.031,1.641c-0.003,3.553-0.001,7.104-0.001,10.656
	c0,0.961,0,1.924,0,3.367c-1.047-0.673-1.604-1.091-2.215-1.417c-7.412-3.962-16.744,0.481-16.924,9.55
	c-0.08,4.098-0.062,8.198-0.001,12.297c0.076,5.184,3.29,9.184,8.298,10.508C410.047,195.613,413.419,194.598,416.775,192.26
	 M401.119,171.766c0.119-4.565,3.308-7.734,7.776-7.785c4.672-0.053,8.075,3.084,8.17,7.685c0.086,4.192,0.094,8.39-0.004,12.583
	c-0.103,4.341-3.639,7.574-8.072,7.562c-4.293-0.012-7.678-3.18-7.858-7.463c-0.094-2.184-0.017-4.375-0.017-6.563
	C401.111,175.777,401.068,173.77,401.119,171.766z M354.806,191.561c0.515,0.625,0.866,1.348,1.442,1.689
	c1.146,0.682,2.38,1.293,3.656,1.637c0.443,0.119,1.362-0.509,1.64-1.021c0.401-0.752,0.188-1.613-0.787-2.002
	c-0.169-0.067-0.339-0.137-0.516-0.182c-1.73-0.447-2.564-1.592-2.66-3.351c-0.049-0.901-0.231-1.798-0.236-2.697
	c-0.023-4.735-0.024-9.471-0.005-14.206c0.008-1.855-0.332-3.587-1.281-5.223c-3.208-5.527-10.572-7.049-16.518-3.486
	c-1.6,0.959-2.687,2.418-3.407,4.151c-0.399,0.961,0.036,1.575,0.771,2.075c0.848,0.576,1.55,0.271,2.142-0.44
	c0.173-0.209,0.294-0.459,0.444-0.687c2.275-3.422,6.482-4.771,10.223-3.279c2.689,1.074,4.429,3.736,4.464,6.609
	c0.018,1.383-0.474,2.297-1.812,2.65c-1.665,0.439-3.36,0.77-5.018,1.24c-2.693,0.766-5.455,1.398-8.021,2.482
	c-2.479,1.045-4.014,3.174-4.269,5.922c-0.523,5.658,2.375,9.83,7.812,11.119C347.318,195.615,351.342,194.826,354.806,191.561
	 M354.01,185.611c-0.295,2.853-2.247,4.719-4.863,5.707c-2.483,0.938-5.007,0.676-7.396-0.442c-2.493-1.167-3.513-3.293-3.558-5.938
	c-0.046-2.658,1.584-4.149,3.823-5.059c1.335-0.541,2.743-0.939,4.153-1.249c2.546-0.558,5.116-0.999,7.901-1.532
	C354.072,180.029,354.295,182.848,354.01,185.611z M299.804,163.748c-1.051-0.68-1.623-1.102-2.242-1.441
	c-7.699-4.236-17.026,0.916-16.919,9.43c0.053,4.191,0.116,8.386-0.016,12.572c-0.19,6.03,5.795,11.894,13.031,10.441
	c2.064-0.414,4.005-1.456,6.021-2.217c0.026,0.139,0.115,0.4,0.116,0.664c0.002,1.154,0.696,1.734,1.713,1.641
	c1.029-0.098,1.528-0.876,1.469-1.949c-0.024-0.455,0-0.912,0-1.367c0-13.849,0.001-27.696,0-41.545c0-0.457-0.015-0.912,0-1.367
	c0.035-1.121-0.264-2.07-1.556-2.123c-1.321-0.053-1.656,0.863-1.618,2.009c0.019,0.546,0,1.093,0,1.64
	C299.804,154.502,299.804,158.87,299.804,163.748 M283.813,171.921c-0.189-4.218,2.765-7.627,7.297-7.929
	c4.595-0.307,8.374,2.716,8.624,7.242c0.245,4.453,0.212,8.938,0,13.396c-0.166,3.495-2.578,5.978-6.063,6.901
	c-3.312,0.88-6.739-0.287-8.594-3.209c-0.695-1.096-1.082-2.518-1.192-3.824c-0.189-2.264-0.052-4.555-0.052-6.834
	c-0.002,0-0.003,0-0.005,0C283.827,175.75,283.898,173.832,283.813,171.921z M274.159,178.109c0-2.185,0.026-4.369-0.006-6.553
	c-0.091-6.027-4.708-10.627-10.765-10.754c-6.225-0.13-11.276,4.283-11.516,10.326c-0.182,4.543-0.207,9.107,0.009,13.646
	c0.288,6.045,5.389,10.388,11.624,10.209c6.046-0.172,10.574-4.787,10.648-10.871C274.18,182.113,274.159,180.111,274.159,178.109
	 M271.006,184.171c0.263,4.029-3.732,7.604-7.638,7.656c-4.447,0.058-8.157-2.979-8.316-7.253
	c-0.165-4.449-0.166-8.914,0.001-13.364c0.159-4.271,3.875-7.308,8.321-7.247c3.891,0.053,7.897,3.623,7.633,7.662
	c-0.137,2.083-0.024,4.182-0.024,6.273C270.983,179.988,270.871,182.088,271.006,184.171z M245.156,178.066
	c0-2.185,0.03-4.367-0.006-6.551c-0.098-6.02-4.733-10.602-10.806-10.713c-6.224-0.113-11.248,4.318-11.477,10.368
	c-0.168,4.453-0.156,8.921-0.005,13.375c0.208,6.063,5.193,10.526,11.409,10.438c6.202-0.086,10.811-4.7,10.881-10.912
	C245.177,182.07,245.156,180.068,245.156,178.066 M241.97,184.352c-0.114,4.226-3.457,7.399-7.784,7.459
	c-4.311,0.059-7.961-2.99-8.128-7.144c-0.183-4.539-0.198-9.099,0.009-13.636c0.188-4.133,3.901-7.08,8.212-7.07
	c3.928,0.008,7.953,3.584,7.725,7.57c-0.124,2.176-0.022,4.363-0.022,6.547C241.98,180.169,242.027,182.262,241.97,184.352z
	 M371.234,163.387c-0.271-1.146-0.307-2.644-1.949-2.429c-1.577,0.206-1.484,1.583-1.445,2.791c0.003,0.091,0,0.183,0,0.274
	c0,9.295-0.001,18.592,0.002,27.888c0,0.547-0.153,1.196,0.087,1.614c0.32,0.559,0.914,1.248,1.465,1.32
	c0.823,0.109,1.559-0.439,1.599-1.461c0.024-0.638,0.021-1.275,0.021-1.914c0.002-6.38-0.009-12.76,0.005-19.139
	c0.009-3.484,1.39-6.244,4.66-7.671c5.24-2.288,11.604,1.049,11.367,7.481c-0.244,6.645-0.062,13.305-0.05,19.957
	c0.005,1.936,0.626,2.959,1.765,2.799c1.699-0.239,1.396-1.644,1.397-2.787c0.015-6.744,0.034-13.489,0-20.233
	c-0.037-7.466-6.444-12.491-13.69-10.659C374.752,161.652,373.159,162.574,371.234,163.387 M525.075,163.277
	c-0.049-0.075-0.223-0.219-0.229-0.365c-0.045-1.143-0.486-2.078-1.73-1.965c-1.396,0.128-1.602,1.268-1.517,2.459
	c0.014,0.181,0.001,0.363,0.001,0.547c0,9.296,0,18.592,0.002,27.888c0,0.546-0.151,1.187,0.077,1.616
	c0.306,0.572,0.861,1.295,1.407,1.389c0.809,0.141,1.593-0.355,1.654-1.39c0.038-0.636,0.032-1.274,0.033-1.913
	c0.002-6.379-0.021-12.759,0.01-19.139c0.019-3.911,1.927-6.715,5.091-7.928c4.625-1.771,11.132,0.987,10.922,7.594
	c-0.204,6.466-0.046,12.941-0.041,19.412c0,0.729-0.168,1.555,0.117,2.154c0.263,0.553,1.03,1.174,1.582,1.182
	c0.473,0.006,1.019-0.77,1.405-1.291c0.178-0.242,0.063-0.707,0.063-1.071c0.002-7.108,0.09-14.22-0.025-21.326
	c-0.107-6.628-6.393-11.338-12.812-10.129C529.095,161.376,527.232,162.439,525.075,163.277 M212.143,164.339
	c1.65,0,2.912-0.015,4.174,0.005c1.141,0.018,2.052-0.354,2.116-1.604c0.072-1.361-0.917-1.586-2.027-1.572
	c-1.335,0.018-2.67,0.004-4.263,0.004c0-1.99-0.003-3.613,0.001-5.234c0.012-4.424,0.73-5.35,4.996-6.385
	c0.952-0.23,1.789-0.564,1.706-1.74c-0.084-1.19-0.941-1.377-1.94-1.422c-4.182-0.189-7.478,2.698-7.865,7.069
	c-0.16,1.81-0.037,3.642-0.082,5.462c-0.019,0.696-0.148,1.391-0.232,2.135c-1.011,0.053-1.877-0.062-2.621,0.188
	c-0.569,0.19-1.271,0.771-1.403,1.304c-0.214,0.857,0.33,1.596,1.304,1.732c0.884,0.125,1.784,0.146,2.963,0.234
	c0,1.09,0,2.073,0,3.057c0,7.926,0,15.852,0.002,23.775c0,0.729-0.161,1.531,0.092,2.164c0.229,0.566,0.911,1.293,1.415,1.311
	c0.522,0.02,1.295-0.627,1.548-1.174c0.281-0.606,0.115-1.428,0.116-2.155c0.004-7.927,0.002-15.853,0.002-23.776
	C212.143,166.729,212.143,165.74,212.143,164.339 M491.633,162.042c-0.271-0.185-0.488-0.339-0.71-0.483
	c-1.706-1.115-2.718-0.67-2.873,1.272c-0.028,0.362-0.009,0.728-0.009,1.092c0,9.281-0.002,18.562,0,27.843
	c0,0.547-0.005,1.094,0.024,1.639c0.054,1.013,0.783,1.562,1.607,1.443c0.551-0.08,1.21-0.762,1.442-1.33
	c0.257-0.627,0.097-1.432,0.097-2.158c0.004-7.461-0.021-14.924,0.014-22.385c0.016-3.166,1.717-4.84,4.86-4.998
	c2.037-0.101,3.71,0.58,5.08,2.113c0.625,0.7,1.416,0.775,2.163,0.083c0.729-0.675,0.833-1.517,0.144-2.159
	c-0.968-0.902-2.006-1.836-3.187-2.389C497.386,160.266,494.457,160.71,491.633,162.042 M509.929,177.95
	c0,4.554-0.002,9.108,0.001,13.663c0.001,0.637-0.154,1.354,0.084,1.89c0.253,0.567,0.878,1.324,1.363,1.341
	c0.537,0.02,1.285-0.599,1.602-1.139c0.281-0.484,0.121-1.241,0.121-1.878c0.006-9.291,0.004-18.582,0.002-27.873
	c-0.001-0.546,0.179-1.229-0.08-1.606c-0.409-0.596-1.068-1.228-1.721-1.359c-0.342-0.068-1.056,0.822-1.303,1.406
	c-0.229,0.543-0.068,1.256-0.068,1.893C509.928,168.841,509.929,173.395,509.929,177.95"/>
<path d="M513.093,149.078c0,0.271,0.017,0.545-0.003,0.814c-0.074,1.104-0.469,2.037-1.743,1.963
	c-1.129-0.067-1.418-0.963-1.413-1.965c0.004-0.543,0.012-1.088,0-1.631c-0.021-1.07,0.433-1.793,1.557-1.783
	c1.099,0.012,1.592,0.721,1.604,1.785C513.096,148.534,513.093,148.807,513.093,149.078"/>
</svg>
