<?xml version="1.0" encoding="utf-8"?>
<!-- Generator: Adobe Illustrator 16.0.0, SVG Export Plug-In . SVG Version: 6.00 Build 0)  -->
<!DOCTYPE svg PUBLIC "-//W3C//DTD SVG 1.1//EN" "http://www.w3.org/Graphics/SVG/1.1/DTD/svg11.dtd">
<svg version="1.1" id="Layer_1" xmlns="http://www.w3.org/2000/svg" xmlns:xlink="http://www.w3.org/1999/xlink" x="0px" y="0px"
	 width="656px" height="195px" viewBox="0 0 656 195" enable-background="new 0 0 656 195" xml:space="preserve">
<g>
	<path d="M125.673,105.628c1.682-3.183,0.517-8.081,2.612-10.446C152.33,68.038,174.378,50,192.801,43.07
		c5.499-2.069,13.198,0.956,6.43,7.581c-22.055,20.136-43.642,41.208-64.735,63.267c0.153,2.765-2.189,4.776-4.823,4.754
		c-23.45,24.187-45.638,48.785-67.652,73.458c-8.494,9.52-22.298-7.021-13.057-15.015c24.25-20.977,49.026-41.995,73.119-65.938
		C121.286,107.917,122.661,106.193,125.673,105.628"/>
	<path d="M126.924,74.358c-0.988-20.529-12.071-73.562-12.071-73.562H76.572c0,0-11.235,53.033-12.224,73.562
		c-0.988,20.529,5.868,27.783,14.998,32.652c6.378,3.401,12.337,3.844,13.326,6.696c0.377,1.088,0.532,8.751,0.579,17.802h-0.015
		c0.007,0.363,0.014,0.709,0.02,1.048c0.062,14.461-0.133,31.902-0.133,31.902h0.005c-0.051,5.422-0.113,11.934-0.187,19.862
		c0,0-1.028,3.56-5.141,4.152c-4.113,0.595-17.803,0.901-20.22,2.374c-1.71,1.042-0.343,4.153-0.343,4.153h56.891
		c0,0,1.388-3.254-0.343-4.153c-2.747-1.426-16.108-1.779-20.222-2.374c-4.111-0.593-5.14-4.152-5.14-4.152
		s-0.157-9.146-0.329-19.862h0.018c0,0-0.5-47.902,0.488-50.752c0.988-2.853,8.423-2.876,14.195-6.838
		C120.023,101.908,127.912,94.887,126.924,74.358"/>
	<path d="M16.294,47.356c-1.306-1.141-1.707-0.891-2.091-0.56c-0.422,0.463-0.621,1.015,0.816,2.441l28.333,29.429
		c1.795,1.783,1.904,2.691,1.171,3.32c-0.629,0.732-1.537,0.624-3.32-1.171L11.774,52.482c-1.458-1.404-1.977-1.238-2.274-0.992
		c-0.246,0.297-0.445,0.848,0.992,2.275l28.333,29.428c1.795,1.783,1.903,2.691,1.171,3.32c-0.629,0.733-1.537,0.625-3.32-1.17
		L7.247,57.009c-1.459-1.404-1.978-1.237-2.274-0.991c-0.246,0.296-0.446,0.848,0.991,2.274l28.334,29.429
		c1.795,1.783,1.903,2.691,1.17,3.32c-0.629,0.732-1.537,0.624-3.32-1.171L2.72,61.537c-1.459-1.405-1.978-1.238-2.442-0.816
		c-0.331,0.383-0.58,0.785,0.56,2.091l37.077,37.901c7.886,7.996,12.881-0.062,20.761,7.744
		c26.438,26.195,48.59,55.123,72.257,83.044c4.439,5.237,9.71,3.876,14.656,0.606c3.27-4.946,4.631-10.218-0.606-14.656
		c-27.921-23.667-56.849-45.819-83.043-72.257c-7.808-7.88,0.251-12.875-7.745-20.761L16.294,47.356"/>
</g>
<path d="M513.093,149.078c0-0.271,0.003-0.544,0-0.815c-0.012-1.064-0.505-1.773-1.603-1.785c-1.124-0.01-1.577,0.712-1.557,1.783
	c0.012,0.543,0.004,1.087,0,1.631c-0.005,1.002,0.284,1.896,1.413,1.965c1.275,0.074,1.669-0.858,1.743-1.963
	C513.109,149.623,513.093,149.35,513.093,149.078"/>
<path d="M287.588,119.716c-6.063,3.98-12.514,3.881-18.993,1.878c-7.434-2.297-11.842-8.753-11.938-17.146
	c-0.095-8.292-0.024-16.583-0.024-24.875c0-4.009-0.046-8.019,0.019-12.027c0.051-3.166,2.029-4.931,5.064-4.679
	c2.185,0.181,3.72,1.567,4.05,3.764c0.121,0.804,0.069,1.636,0.07,2.455c0.004,11.299,0.002,22.597,0.006,33.896
	c0.001,4.306,1.813,7.658,5.681,9.545c7.253,3.535,16.334-0.676,16.277-9.81c-0.069-11.024-0.016-22.05-0.014-33.075
	c0-0.82-0.028-1.643,0.029-2.459c0.193-2.743,1.915-4.343,4.612-4.326c2.672,0.016,4.356,1.645,4.541,4.42
	c0.043,0.635,0.013,1.275,0.013,1.913c0,15.763,0,31.526,0,47.289c0,0.456,0.009,0.912-0.004,1.367c-0.073,2.551-0.991,3.98-3,4.684
	c-2.047,0.716-4.081,0.096-5.591-1.721C288.101,120.466,287.858,120.089,287.588,119.716 M566.529,65.882
	c-0.182-0.211-0.369-0.405-0.53-0.619c-1.688-2.234-3.577-2.934-5.898-2.18c-2.071,0.673-3.026,2.168-3.054,4.92
	c-0.029,3.008-0.007,6.017-0.007,9.026c0.001,13.676-0.016,27.352,0.018,41.028c0.009,2.957,1.755,4.711,4.488,4.762
	c2.729,0.049,4.551-1.697,4.693-4.595c0.076-1.547,0.019-3.1,0.02-4.649c0.001-10.302,0.003-20.605,0.002-30.907
	c0-4.085,1.687-7.267,5.263-9.252c7.023-3.9,16.857,0.054,16.776,9.566c-0.085,10.119-0.02,20.24-0.018,30.36
	c0,1.733-0.07,3.469,0.026,5.196c0.145,2.569,1.898,4.202,4.43,4.277c2.413,0.069,4.171-1.361,4.569-3.805
	c0.132-0.803,0.118-1.635,0.118-2.453c0.007-10.94,0.031-21.882-0.018-32.823c-0.01-2.087-0.155-4.203-0.522-6.255
	c-0.986-5.525-3.808-9.966-8.938-12.367C580.873,61.802,573.717,61.645,566.529,65.882 M319.233,64.868
	c-0.318-0.28-0.595-0.505-0.851-0.753c-1.577-1.53-3.432-1.61-5.323-0.847c-1.895,0.764-2.687,2.352-2.728,4.346
	c-0.012,0.546-0.011,1.093-0.011,1.64c-0.001,15.671-0.002,31.343,0.001,47.015c0.001,0.819-0.025,1.648,0.079,2.457
	c0.327,2.546,2.15,4.131,4.63,4.095c2.51-0.037,4.248-1.644,4.503-4.221c0.08-0.812,0.046-1.639,0.046-2.458
	c0.003-11.754-0.007-23.508,0.018-35.262c0.003-1.266,0.102-2.55,0.335-3.792c0.463-2.477,2.007-3.997,4.44-4.658
	c3.305-0.896,6.291-0.554,8.844,1.984c1.501,1.492,3.271,2.323,5.452,1.542c2.862-1.024,3.804-4.177,1.987-7.019
	c-1.966-3.074-4.873-4.907-8.399-5.637C327.784,62.375,323.388,62.583,319.233,64.868 M407.705,120.047
	c0.572,0.116,0.867,0.098,1.066,0.228c3.623,2.357,7.674,2.791,11.827,2.489c10.651-0.771,18.196-8.878,18.227-19.508
	c0.02-7.021,0.034-14.043-0.003-21.063c-0.053-9.706-7.276-17.984-16.877-19.186c-4.972-0.623-9.831-0.202-14.071,3.054
	c-0.333-0.469-0.533-0.763-0.745-1.048c-1.497-2.012-3.487-2.676-5.736-1.917c-1.916,0.646-2.775,1.981-2.869,4.468
	c-0.014,0.365-0.005,0.73-0.005,1.094c0,24.62-0.001,49.239,0.004,73.857c0,0.729-0.033,1.471,0.09,2.182
	c0.542,3.143,3.922,4.726,6.728,3.204c1.957-1.062,2.384-2.813,2.375-4.854c-0.027-6.747-0.01-13.495-0.01-20.242
	C407.705,121.931,407.705,121.055,407.705,120.047 M407.712,82.248c0.061-6.255,4.175-10.202,10.646-10.258
	c6.438-0.056,11.149,4.095,11.243,10.144c0.111,7.112,0.097,14.227,0.007,21.34c-0.071,5.703-4.362,10.029-10.057,10.163
	c-1.793,0.042-3.682-0.115-5.38-0.649c-4.077-1.28-6.382-4.568-6.45-8.853c-0.06-3.737-0.013-7.478-0.013-11.217
	C407.706,89.361,407.678,85.804,407.712,82.248z M533.394,118.369c0.374,0.341,0.726,0.619,1.027,0.941
	c2.049,2.185,4.716,3.065,7.558,3.457c2.412,0.332,4.345-1.073,4.918-3.369c0.572-2.293-0.511-4.387-2.755-5.272
	c-0.507-0.2-1.049-0.308-1.568-0.474c-1.568-0.502-2.384-1.622-2.531-3.222c-0.084-0.904-0.08-1.82-0.081-2.73
	c-0.005-8.842,0.049-17.685-0.02-26.527c-0.063-8.091-5.215-15.093-12.942-17.426c-5.307-1.603-10.649-1.372-15.782,0.834
	c-4.388,1.886-7.438,5.19-9.319,9.547c-0.902,2.089-0.468,3.945,1.031,5.233c1.469,1.263,3.725,1.61,5.357,0.595
	c0.811-0.504,1.562-1.297,2.029-2.133c2.46-4.403,6.21-6.118,11.146-5.854c5.943,0.317,9.439,3.938,9.297,9.872
	c-0.047,1.974-0.416,2.633-2.299,3.212c-1.735,0.535-3.548,0.81-5.316,1.243c-4.326,1.06-8.771,1.799-12.942,3.298
	c-7.521,2.702-10.569,7.482-10.558,15.414c0.013,7.851,3.925,13.677,11.35,16.286c7.444,2.616,14.694,2.307,21.396-2.368
	C532.675,118.727,533,118.585,533.394,118.369 M530.59,104.777c-0.39,4.036-2.828,6.895-6.646,8.231
	c-3.549,1.242-7.188,1.076-10.606-0.602c-3.178-1.559-4.495-4.241-4.507-7.763c-0.012-3.372,1.752-5.406,4.553-6.8
	c0.811-0.404,1.658-0.762,2.526-1.013c1.569-0.452,3.151-0.876,4.754-1.188c3.195-0.624,6.407-1.164,9.997-1.808
	C530.66,97.731,530.928,101.283,530.59,104.777z M642.101,118.372c2.157,2.603,4.923,3.86,8.085,4.335
	c2.62,0.394,4.764-0.898,5.29-3.172c0.616-2.655-0.482-4.61-3.117-5.542c-3.332-1.18-3.768-1.747-3.776-5.343
	c-0.02-8.474-0.003-16.946-0.011-25.42c-0.001-1.092-0.017-2.188-0.104-3.276c-0.474-5.918-3.263-10.485-8.061-13.931
	c-6.319-4.539-18.021-4.272-24.217,0.687c-2.546,2.037-4.49,4.529-5.723,7.534c-0.849,2.072-0.357,3.964,1.163,5.202
	c1.501,1.222,3.785,1.51,5.368,0.457c0.798-0.531,1.504-1.344,1.984-2.182c2.438-4.261,6.097-5.985,10.932-5.754
	c5.985,0.286,9.459,3.77,9.453,9.733c-0.002,2.04-0.472,2.733-2.443,3.421c-0.77,0.269-1.576,0.455-2.378,0.614
	c-2.948,0.582-5.913,1.081-8.849,1.716c-3.933,0.849-7.77,1.994-11.153,4.285c-3.691,2.501-5.862,5.927-6.175,10.418
	c-0.107,1.539-0.14,3.096-0.04,4.634c0.4,6.173,3.491,10.676,8.922,13.448c6.428,3.279,13.113,3.548,19.831,0.893
	C638.753,120.469,640.261,119.398,642.101,118.372 M638.963,106.006c-0.811,3.507-3.154,5.95-6.582,7.062
	c-3.381,1.096-6.82,0.966-10.111-0.499c-3.366-1.498-4.826-4.257-4.867-7.834c-0.039-3.413,1.772-5.6,4.758-6.966
	c0.165-0.075,0.334-0.142,0.5-0.216c2.967-1.318,13.139-3.434,16.688-3.409C639.334,98.101,639.866,102.098,638.963,106.006z
	 M216.905,97.124c-0.995,0-1.991,0-3.315,0c0,2.912-0.271,5.474,0.06,7.955c0.563,4.23,3.852,7.616,7.969,8.362
	c4.576,0.83,8.752,0.094,11.706-3.976c0.585-0.806,0.989-1.739,1.513-2.592c1.248-2.035,3.27-2.759,5.39-1.958
	c2.116,0.799,3.395,3.036,2.933,5.271c-0.145,0.702-0.459,1.383-0.776,2.033c-3.772,7.769-11.965,11.768-21.291,10.409
	c-9.944-1.448-16.843-9.381-16.866-19.422c-0.016-6.927-0.022-13.854,0.001-20.781c0.036-11.04,8.561-19.507,19.61-19.591
	c3.136-0.023,6.211,0.203,9.083,1.531c7.405,3.426,11.249,9.303,11.624,17.403c0.156,3.365,0.064,6.744,0.018,10.116
	c-0.046,3.459-1.778,5.209-5.238,5.226C231.853,97.149,224.379,97.124,216.905,97.124 M213.513,88.352c7.384,0,14.364,0,21.842,0
	c0-2.318,0.094-4.39-0.018-6.45c-0.271-4.949-3.888-8.955-8.731-9.802c-5.247-0.918-10.234,1.535-12.254,6.059
	C212.879,81.457,213.54,84.861,213.513,88.352z M459.826,97.124c1.226,0,2.128,0,3.03,0c7.562,0,15.126,0.025,22.688-0.013
	c3.491-0.017,5.217-1.744,5.257-5.189c0.04-3.462,0.118-6.93-0.017-10.387c-0.255-6.517-3.061-11.72-8.447-15.454
	c-3.663-2.539-7.783-3.302-12.188-3.255c-11.095,0.117-19.562,8.459-19.632,19.554c-0.043,6.925-0.06,13.851,0.007,20.776
	c0.076,8.132,3.659,14.345,11.075,17.692c7.688,3.471,15.295,2.876,22.17-2.394c2.578-1.977,4.409-4.614,5.479-7.696
	c0.798-2.302-0.323-4.736-2.47-5.716c-2.25-1.026-4.431-0.26-5.78,2.041c-0.415,0.706-0.749,1.467-1.221,2.131
	c-2.962,4.165-6.821,5.091-11.851,4.232c-4.22-0.722-7.51-4.225-8.048-8.599C459.584,102.447,459.826,99.979,459.826,97.124
	 M460.03,80.021c1.235-5.351,5.946-8.463,11.973-8.016c5.142,0.382,9.291,4.59,9.581,9.832c0.114,2.064,0.018,4.14,0.018,6.477
	c-7.289,0.302-14.332,0.059-21.691,0.158C459.624,85.395,459.413,82.688,460.03,80.021z M387.519,92.969c0.057,0,0.111,0,0.167,0
	c0-3.096,0.065-6.194-0.023-9.288c-0.055-1.903-0.168-3.836-0.559-5.692c-1.777-8.487-9.764-15.492-20.001-15.203
	c-11.32,0.319-19.69,8.324-19.797,19.652c-0.065,7.011-0.104,14.026,0.042,21.034c0.046,2.237,0.414,4.57,1.162,6.671
	c3.119,8.765,11.715,13.684,21.582,12.573c9.604-1.08,16.596-8.075,17.374-17.739C387.786,100.999,387.519,96.974,387.519,92.969
	 M378.495,102.388c-0.044,2.79-0.648,5.408-2.53,7.622c-3.328,3.916-8.429,4.414-12.509,3.077c-4.244-1.392-6.87-5.058-6.937-9.81
	c-0.097-6.93-0.118-13.863,0.003-20.792c0.105-6.007,4.307-10.259,10.066-10.493c6.548-0.266,11.145,3.338,11.713,9.616
	c0.336,3.706,0.062,7.467,0.062,11.203c0.048,0,0.095,0,0.143,0.001C378.506,96.004,378.544,99.197,378.495,102.388z
	 M566.529,65.882c-0.182-0.211-0.369-0.405-0.53-0.619c-1.688-2.234-3.577-2.934-5.898-2.18c-2.071,0.673-3.026,2.168-3.054,4.92
	c-0.029,3.008-0.007,6.017-0.007,9.026c0.001,13.676-0.016,27.352,0.018,41.028c0.009,2.957,1.755,4.711,4.488,4.762
	c2.729,0.049,4.551-1.697,4.693-4.595c0.076-1.547,0.019-3.1,0.02-4.649c0.001-10.302,0.003-20.605,0.002-30.907
	c0-4.085,1.687-7.267,5.263-9.252c7.023-3.9,16.857,0.054,16.776,9.566c-0.085,10.119-0.02,20.24-0.018,30.36
	c0,1.733-0.07,3.469,0.026,5.196c0.145,2.569,1.898,4.202,4.43,4.277c2.413,0.069,4.171-1.361,4.569-3.805
	c0.132-0.803,0.118-1.635,0.118-2.453c0.007-10.94,0.031-21.882-0.018-32.823c-0.01-2.087-0.155-4.203-0.522-6.255
	c-0.986-5.525-3.808-9.966-8.938-12.367C580.873,61.802,573.717,61.645,566.529,65.882 M319.233,64.868
	c-0.318-0.28-0.595-0.505-0.851-0.753c-1.577-1.53-3.432-1.61-5.323-0.847c-1.895,0.764-2.687,2.352-2.728,4.346
	c-0.012,0.546-0.011,1.093-0.011,1.64c-0.001,15.671-0.002,31.343,0.001,47.015c0.001,0.819-0.025,1.648,0.079,2.457
	c0.327,2.546,2.15,4.131,4.63,4.095c2.51-0.037,4.248-1.644,4.503-4.221c0.08-0.812,0.046-1.639,0.046-2.458
	c0.003-11.754-0.007-23.508,0.018-35.262c0.003-1.266,0.102-2.55,0.335-3.792c0.463-2.477,2.007-3.997,4.44-4.658
	c3.305-0.896,6.291-0.554,8.844,1.984c1.501,1.492,3.271,2.323,5.452,1.542c2.862-1.024,3.804-4.177,1.987-7.019
	c-1.966-3.074-4.873-4.907-8.399-5.637C327.784,62.375,323.388,62.583,319.233,64.868"/>
<path d="M564.305,174.668c3.02,5.258,5.961,10.378,8.898,15.5c0.452,0.788,0.903,1.578,1.312,2.389
	c0.452,0.895,0.078,1.607-0.655,2.12c-0.835,0.584-1.582,0.262-2.141-0.459c-0.442-0.57-0.798-1.214-1.16-1.843
	c-2.497-4.335-4.98-8.677-7.48-13.01c-0.359-0.622-0.783-1.206-1.319-2.024c-1.808,1.822-3.518,3.537-5.218,5.26
	c-0.879,0.892-1.187,1.95-1.146,3.218c0.08,2.364,0.01,4.735,0.024,7.104c0.007,1.015-0.27,1.83-1.39,2.007
	c-0.922,0.146-1.66-0.688-1.771-1.951c-0.048-0.543-0.015-1.093-0.015-1.639c-0.001-13.754-0.002-27.508,0.003-41.262
	c0-0.817-0.149-1.717,0.141-2.426c0.218-0.53,1.039-1.127,1.578-1.115c0.481,0.012,1.149,0.739,1.36,1.293
	c0.244,0.64,0.09,1.436,0.09,2.165c0.003,8.47,0.002,16.94,0.002,25.412c0,0.877,0,1.755,0,3.061c0.727-0.501,1.124-0.684,1.4-0.979
	c4.777-5.117,9.536-10.252,14.312-15.37c0.366-0.395,0.796-0.91,1.261-0.987c0.631-0.104,1.546-0.06,1.924,0.326
	c0.365,0.375,0.443,1.359,0.223,1.902c-0.294,0.718-0.974,1.292-1.536,1.883c-2.32,2.438-4.668,4.852-6.98,7.297
	C565.465,173.129,564.997,173.804,564.305,174.668 M371.234,163.387c-0.271-1.147-0.307-2.644-1.949-2.429
	c-1.577,0.206-1.485,1.583-1.446,2.791c0.003,0.091,0,0.182,0,0.274c0,9.296-0.001,18.592,0.002,27.888
	c0,0.547-0.153,1.196,0.087,1.614c0.321,0.559,0.914,1.249,1.465,1.321c0.823,0.109,1.559-0.44,1.599-1.461
	c0.024-0.638,0.021-1.275,0.021-1.914c0.002-6.38-0.009-12.76,0.005-19.139c0.009-3.485,1.39-6.244,4.66-7.671
	c5.24-2.288,11.604,1.049,11.367,7.481c-0.244,6.645-0.062,13.305-0.049,19.958c0.004,1.935,0.626,2.959,1.764,2.799
	c1.699-0.24,1.396-1.644,1.398-2.788c0.014-6.744,0.034-13.489,0-20.233c-0.037-7.466-6.445-12.491-13.691-10.66
	C374.752,161.653,373.16,162.574,371.234,163.387 M525.076,163.278c-0.049-0.076-0.223-0.219-0.229-0.366
	c-0.045-1.143-0.486-2.078-1.73-1.964c-1.397,0.127-1.602,1.267-1.517,2.458c0.014,0.181,0.001,0.363,0.001,0.547
	c0,9.296,0,18.592,0.002,27.888c0,0.546-0.151,1.186,0.077,1.616c0.306,0.573,0.861,1.295,1.407,1.389
	c0.809,0.14,1.593-0.355,1.655-1.39c0.038-0.636,0.032-1.275,0.033-1.913c0.002-6.379-0.021-12.759,0.01-19.139
	c0.018-3.911,1.926-6.715,5.09-7.927c4.625-1.771,11.132,0.987,10.922,7.594c-0.204,6.465-0.046,12.94-0.041,19.412
	c0,0.728-0.168,1.554,0.118,2.154c0.262,0.552,1.03,1.173,1.582,1.181c0.472,0.006,1.018-0.769,1.405-1.291
	c0.178-0.242,0.063-0.707,0.063-1.071c0.002-7.109,0.09-14.219-0.025-21.326c-0.107-6.628-6.393-11.338-12.812-10.129
	C529.095,161.376,527.232,162.439,525.076,163.278 M212.143,164.339c1.65,0,2.912-0.015,4.174,0.004
	c1.14,0.019,2.051-0.353,2.116-1.603c0.072-1.361-0.917-1.586-2.027-1.572c-1.335,0.017-2.67,0.004-4.263,0.004
	c0-1.991-0.003-3.613,0.001-5.235c0.012-4.424,0.73-5.349,4.996-6.384c0.952-0.23,1.789-0.565,1.706-1.741
	c-0.084-1.19-0.941-1.377-1.94-1.422c-4.182-0.189-7.478,2.699-7.866,7.07c-0.16,1.809-0.037,3.642-0.082,5.462
	c-0.018,0.696-0.148,1.39-0.232,2.134c-1.011,0.054-1.877-0.061-2.621,0.189c-0.57,0.19-1.271,0.77-1.404,1.304
	c-0.213,0.857,0.331,1.596,1.304,1.733c0.884,0.125,1.784,0.146,2.963,0.233c0,1.091,0,2.074,0,3.058c0,7.925,0,15.851,0.002,23.775
	c0,0.729-0.161,1.531,0.092,2.163c0.228,0.567,0.911,1.293,1.415,1.312c0.522,0.019,1.295-0.628,1.548-1.174
	c0.281-0.607,0.115-1.429,0.116-2.156c0.004-7.926,0.002-15.852,0.002-23.776C212.143,166.729,212.143,165.741,212.143,164.339
	 M491.633,162.042c-0.271-0.185-0.488-0.339-0.71-0.484c-1.706-1.114-2.717-0.67-2.873,1.273c-0.028,0.362-0.009,0.728-0.009,1.092
	c0,9.281-0.001,18.562,0.001,27.843c0,0.546-0.005,1.094,0.024,1.638c0.054,1.013,0.783,1.562,1.607,1.444
	c0.551-0.08,1.21-0.762,1.443-1.33c0.257-0.627,0.096-1.432,0.096-2.158c0.004-7.461-0.02-14.924,0.014-22.385
	c0.016-3.166,1.717-4.841,4.86-4.998c2.038-0.101,3.71,0.579,5.081,2.113c0.625,0.7,1.416,0.775,2.163,0.083
	c0.729-0.675,0.833-1.516,0.143-2.159c-0.968-0.902-2.006-1.836-3.186-2.389C497.386,160.265,494.458,160.71,491.633,162.042
	 M509.929,177.95c0,4.554-0.002,9.108,0.001,13.663c0.001,0.637-0.154,1.354,0.084,1.89c0.253,0.568,0.878,1.324,1.363,1.341
	c0.538,0.019,1.286-0.599,1.602-1.139c0.281-0.485,0.121-1.241,0.121-1.878c0.006-9.291,0.004-18.582,0.002-27.873
	c-0.001-0.546,0.179-1.23-0.08-1.607c-0.409-0.595-1.068-1.227-1.721-1.358c-0.342-0.069-1.055,0.821-1.302,1.405
	c-0.23,0.543-0.069,1.256-0.069,1.893C509.928,168.841,509.929,173.395,509.929,177.95 M476.421,192.561
	c0.015,0.073,0.121,0.336,0.117,0.597c-0.017,1.15,0.647,1.762,1.677,1.687c1.031-0.075,1.555-0.834,1.507-1.916
	c-0.02-0.454,0.002-0.911,0.002-1.366c0-13.939,0.001-27.879-0.004-41.818c-0.001-0.726,0.046-1.478-0.122-2.171
	c-0.229-0.95-1.425-1.496-2.146-0.918c-0.476,0.381-0.843,1.179-0.859,1.8c-0.084,3.278-0.042,6.559-0.044,9.839
	c0,1.682,0,3.364,0,5.445c-0.942-0.609-1.442-0.964-1.973-1.268c-3.861-2.208-7.831-2.335-11.693-0.185
	c-3.717,2.069-5.529,5.378-5.493,9.682c0.035,4.1,0.122,8.203-0.019,12.298c-0.209,6.039,5.749,11.905,12.993,10.497
	C472.364,194.374,474.245,193.371,476.421,192.561 M460.56,171.813c-0.157-4.179,2.855-7.586,7.404-7.823
	c4.599-0.241,8.3,2.812,8.525,7.351c0.217,4.366,0.185,8.757,0.004,13.126c-0.149,3.6-2.593,6.188-6.181,7.097
	c-3.296,0.835-6.763-0.401-8.553-3.328c-0.677-1.108-1.024-2.532-1.135-3.845c-0.182-2.173-0.049-4.372-0.049-6.561
	C460.573,175.824,460.636,173.816,460.56,171.813z M416.775,192.259c0.153,0.501,0.268,0.748,0.302,1.006
	c0.145,1.086,0.82,1.713,1.84,1.584c1.053-0.134,1.444-0.98,1.347-2.031c-0.032-0.361-0.002-0.729-0.002-1.094
	c0-14.027,0-28.056-0.001-42.084c0-0.546-0.005-1.093-0.021-1.639c-0.03-0.993-0.586-1.531-1.542-1.522
	c-0.945,0.01-1.513,0.559-1.577,1.529c-0.037,0.545-0.031,1.093-0.032,1.64c-0.002,3.553-0.001,7.104-0.001,10.657
	c0,0.961,0,1.923,0,3.367c-1.046-0.673-1.604-1.091-2.214-1.417c-7.413-3.962-16.745,0.481-16.924,9.55
	c-0.08,4.098-0.062,8.198-0.001,12.297c0.076,5.183,3.29,9.183,8.298,10.507C410.047,195.613,413.419,194.597,416.775,192.259
	 M401.12,171.765c0.119-4.565,3.307-7.733,7.776-7.784c4.672-0.054,8.075,3.083,8.17,7.684c0.086,4.193,0.094,8.39-0.004,12.583
	c-0.103,4.341-3.639,7.574-8.072,7.562c-4.293-0.011-7.678-3.179-7.859-7.462c-0.093-2.184-0.016-4.376-0.016-6.564
	C401.111,175.777,401.068,173.77,401.12,171.765z M354.806,191.561c0.515,0.624,0.866,1.347,1.443,1.689
	c1.146,0.681,2.379,1.293,3.656,1.637c0.443,0.119,1.362-0.509,1.639-1.022c0.402-0.752,0.188-1.613-0.787-2.002
	c-0.169-0.067-0.339-0.136-0.515-0.181c-1.731-0.447-2.565-1.592-2.66-3.351c-0.049-0.901-0.232-1.798-0.237-2.697
	c-0.023-4.735-0.024-9.471-0.005-14.207c0.008-1.855-0.332-3.586-1.281-5.222c-3.208-5.528-10.572-7.048-16.517-3.487
	c-1.6,0.959-2.687,2.419-3.408,4.152c-0.399,0.961,0.036,1.575,0.771,2.075c0.847,0.577,1.55,0.272,2.141-0.44
	c0.173-0.209,0.294-0.459,0.445-0.686c2.275-3.423,6.482-4.772,10.222-3.28c2.69,1.074,4.429,3.737,4.464,6.609
	c0.018,1.384-0.473,2.298-1.812,2.651c-1.665,0.44-3.361,0.769-5.018,1.24c-2.693,0.766-5.455,1.399-8.021,2.482
	c-2.479,1.045-4.014,3.174-4.269,5.922c-0.523,5.659,2.375,9.83,7.813,11.119C347.318,195.616,351.342,194.826,354.806,191.561
	 M354.01,185.612c-0.295,2.852-2.247,4.718-4.863,5.706c-2.483,0.938-5.007,0.676-7.396-0.442c-2.493-1.167-3.512-3.293-3.557-5.939
	c-0.046-2.658,1.584-4.149,3.823-5.058c1.335-0.541,2.743-0.939,4.153-1.249c2.546-0.558,5.117-0.999,7.902-1.532
	C354.072,180.029,354.295,182.847,354.01,185.612z M299.804,163.748c-1.051-0.679-1.623-1.102-2.242-1.442
	c-7.699-4.235-17.027,0.916-16.919,9.431c0.053,4.19,0.116,8.385-0.016,12.571c-0.19,6.031,5.795,11.894,13.031,10.442
	c2.065-0.414,4.005-1.456,6.022-2.217c0.026,0.139,0.115,0.401,0.116,0.665c0.002,1.153,0.696,1.734,1.713,1.64
	c1.029-0.097,1.528-0.876,1.469-1.95c-0.025-0.455,0-0.911,0-1.366c0-13.849,0.001-27.697,0-41.546c0-0.456-0.015-0.911,0-1.366
	c0.035-1.121-0.264-2.071-1.556-2.123c-1.321-0.054-1.656,0.862-1.618,2.008c0.019,0.546,0,1.093,0,1.64
	C299.804,154.502,299.804,158.87,299.804,163.748 M283.813,171.921c-0.19-4.218,2.764-7.627,7.297-7.929
	c4.594-0.306,8.374,2.716,8.624,7.242c0.245,4.454,0.212,8.938,0,13.396c-0.166,3.495-2.578,5.977-6.064,6.902
	c-3.311,0.879-6.739-0.288-8.594-3.21c-0.695-1.096-1.082-2.517-1.192-3.824c-0.189-2.264-0.052-4.555-0.052-6.834
	c-0.002,0-0.003,0-0.005,0C283.827,175.75,283.898,173.832,283.813,171.921z M274.159,178.11c0-2.185,0.027-4.369-0.005-6.553
	c-0.091-6.027-4.708-10.628-10.765-10.754c-6.225-0.13-11.276,4.283-11.516,10.326c-0.181,4.543-0.207,9.107,0.009,13.646
	c0.288,6.045,5.389,10.388,11.624,10.21c6.046-0.173,10.574-4.787,10.649-10.871C274.18,182.114,274.159,180.112,274.159,178.11
	 M271.006,184.171c0.263,4.029-3.732,7.605-7.638,7.656c-4.447,0.058-8.157-2.979-8.316-7.253
	c-0.165-4.449-0.166-8.914,0.001-13.364c0.159-4.271,3.875-7.307,8.321-7.247c3.891,0.052,7.898,3.623,7.633,7.662
	c-0.137,2.083-0.024,4.181-0.024,6.273C270.983,179.989,270.871,182.088,271.006,184.171z M245.157,178.067
	c0-2.185,0.03-4.368-0.006-6.552c-0.098-6.019-4.734-10.601-10.806-10.712c-6.224-0.113-11.248,4.318-11.477,10.368
	c-0.168,4.453-0.156,8.921-0.004,13.375c0.208,6.063,5.193,10.526,11.409,10.439c6.202-0.087,10.81-4.701,10.881-10.913
	C245.177,182.071,245.157,180.069,245.157,178.067 M241.97,184.352c-0.114,4.225-3.457,7.399-7.784,7.458
	c-4.311,0.059-7.961-2.99-8.128-7.143c-0.183-4.539-0.198-9.099,0.009-13.636c0.188-4.133,3.901-7.08,8.212-7.07
	c3.927,0.008,7.953,3.584,7.724,7.571c-0.124,2.175-0.022,4.362-0.022,6.546C241.98,180.169,242.027,182.262,241.97,184.352z
	 M371.234,163.387c-0.271-1.147-0.307-2.644-1.949-2.429c-1.577,0.206-1.485,1.583-1.446,2.791c0.003,0.091,0,0.182,0,0.274
	c0,9.296-0.001,18.592,0.002,27.888c0,0.547-0.153,1.196,0.087,1.614c0.321,0.559,0.914,1.249,1.465,1.321
	c0.823,0.109,1.559-0.44,1.599-1.461c0.024-0.638,0.021-1.275,0.021-1.914c0.002-6.38-0.009-12.76,0.005-19.139
	c0.009-3.485,1.39-6.244,4.66-7.671c5.24-2.288,11.604,1.049,11.367,7.481c-0.244,6.645-0.062,13.305-0.049,19.958
	c0.004,1.935,0.626,2.959,1.764,2.799c1.699-0.24,1.396-1.644,1.398-2.788c0.014-6.744,0.034-13.489,0-20.233
	c-0.037-7.466-6.445-12.491-13.691-10.66C374.752,161.653,373.16,162.574,371.234,163.387 M525.076,163.278
	c-0.049-0.076-0.223-0.219-0.229-0.366c-0.045-1.143-0.486-2.078-1.73-1.964c-1.397,0.127-1.602,1.267-1.517,2.458
	c0.014,0.181,0.001,0.363,0.001,0.547c0,9.296,0,18.592,0.002,27.888c0,0.546-0.151,1.186,0.077,1.616
	c0.306,0.573,0.861,1.295,1.407,1.389c0.809,0.14,1.593-0.355,1.655-1.39c0.038-0.636,0.032-1.275,0.033-1.913
	c0.002-6.379-0.021-12.759,0.01-19.139c0.018-3.911,1.926-6.715,5.09-7.927c4.625-1.771,11.132,0.987,10.922,7.594
	c-0.204,6.465-0.046,12.94-0.041,19.412c0,0.728-0.168,1.554,0.118,2.154c0.262,0.552,1.03,1.173,1.582,1.181
	c0.472,0.006,1.018-0.769,1.405-1.291c0.178-0.242,0.063-0.707,0.063-1.071c0.002-7.109,0.09-14.219-0.025-21.326
	c-0.107-6.628-6.393-11.338-12.812-10.129C529.095,161.376,527.232,162.439,525.076,163.278 M212.143,164.339
	c1.65,0,2.912-0.015,4.174,0.004c1.14,0.019,2.051-0.353,2.116-1.603c0.072-1.361-0.917-1.586-2.027-1.572
	c-1.335,0.017-2.67,0.004-4.263,0.004c0-1.991-0.003-3.613,0.001-5.235c0.012-4.424,0.73-5.349,4.996-6.384
	c0.952-0.23,1.789-0.565,1.706-1.741c-0.084-1.19-0.941-1.377-1.94-1.422c-4.182-0.189-7.478,2.699-7.866,7.07
	c-0.16,1.809-0.037,3.642-0.082,5.462c-0.018,0.696-0.148,1.39-0.232,2.134c-1.011,0.054-1.877-0.061-2.621,0.189
	c-0.57,0.19-1.271,0.77-1.404,1.304c-0.213,0.857,0.331,1.596,1.304,1.733c0.884,0.125,1.784,0.146,2.963,0.233
	c0,1.091,0,2.074,0,3.058c0,7.925,0,15.851,0.002,23.775c0,0.729-0.161,1.531,0.092,2.163c0.228,0.567,0.911,1.293,1.415,1.312
	c0.522,0.019,1.295-0.628,1.548-1.174c0.281-0.607,0.115-1.429,0.116-2.156c0.004-7.926,0.002-15.852,0.002-23.776
	C212.143,166.729,212.143,165.741,212.143,164.339 M491.633,162.042c-0.271-0.185-0.488-0.339-0.71-0.484
	c-1.706-1.114-2.717-0.67-2.873,1.273c-0.028,0.362-0.009,0.728-0.009,1.092c0,9.281-0.001,18.562,0.001,27.843
	c0,0.546-0.005,1.094,0.024,1.638c0.054,1.013,0.783,1.562,1.607,1.444c0.551-0.08,1.21-0.762,1.443-1.33
	c0.257-0.627,0.096-1.432,0.096-2.158c0.004-7.461-0.02-14.924,0.014-22.385c0.016-3.166,1.717-4.841,4.86-4.998
	c2.038-0.101,3.71,0.579,5.081,2.113c0.625,0.7,1.416,0.775,2.163,0.083c0.729-0.675,0.833-1.516,0.143-2.159
	c-0.968-0.902-2.006-1.836-3.186-2.389C497.386,160.265,494.458,160.71,491.633,162.042 M509.929,177.95
	c0,4.554-0.002,9.108,0.001,13.663c0.001,0.637-0.154,1.354,0.084,1.89c0.253,0.568,0.878,1.324,1.363,1.341
	c0.538,0.019,1.286-0.599,1.602-1.139c0.281-0.485,0.121-1.241,0.121-1.878c0.006-9.291,0.004-18.582,0.002-27.873
	c-0.001-0.546,0.179-1.23-0.08-1.607c-0.409-0.595-1.068-1.227-1.721-1.358c-0.342-0.069-1.055,0.821-1.302,1.405
	c-0.23,0.543-0.069,1.256-0.069,1.893C509.928,168.841,509.929,173.395,509.929,177.95"/>
<path d="M513.093,149.078c0,0.271,0.017,0.545-0.003,0.815c-0.074,1.104-0.468,2.037-1.743,1.963
	c-1.129-0.068-1.418-0.963-1.413-1.965c0.004-0.544,0.012-1.088,0-1.631c-0.021-1.071,0.433-1.793,1.557-1.783
	c1.098,0.012,1.591,0.721,1.603,1.785C513.096,148.534,513.093,148.807,513.093,149.078"/>
</svg>
