<?xml version="1.0" encoding="utf-8"?>
<!-- Generator: Adobe Illustrator 16.0.0, SVG Export Plug-In . SVG Version: 6.00 Build 0)  -->
<!DOCTYPE svg PUBLIC "-//W3C//DTD SVG 1.0//EN" "http://www.w3.org/TR/2001/REC-SVG-20010904/DTD/svg10.dtd">
<svg version="1.0" id="Layer_2" xmlns="http://www.w3.org/2000/svg" xmlns:xlink="http://www.w3.org/1999/xlink" x="0px" y="0px"
	 width="748.112px" height="282.242px" viewBox="49.444 469.83 748.112 282.242"
	 enable-background="new 49.444 469.83 748.112 282.242" xml:space="preserve">
<g>
	<path fill="#231F20" d="M277.945,569.247c-0.169-2.496-0.482-4.934-0.573-7.445c-0.457-1.825-0.727-4.836-1.218-6.456
		c-0.683-2.235-0.707-3.05-1.156-4.562c-0.481-1.628-0.511-1.535-1.49-5.175c-1.839-6.823-5.036-13.662-8.321-20.088
		c-2.142-4.192-4.881-7.57-7.521-11.24c-0.572-0.798-2.122-2.636-2.592-3.328c-0.986-1.457-7.129-8.528-9.075-10.119
		c-1.948-1.591-3.631-3.409-5.632-4.955c-2.042-1.583-4.058-3.198-6.12-4.752c-1.695-1.284-3.466-1.995-5.188-3.068
		c-9.362-5.823-19.698-10.268-30.438-12.766c-35.806-8.324-77.804,3.871-101.052,33.197c-2.433,3.071-9.153,12.417-10.105,13.977
		c-2.137,3.514-3.885,6.818-5.573,10.567c-6.583,14.622-10.535,32.138-9.281,48.928c0.687,9.19,2.515,18.681,5.677,27.347
		c0.991,2.717,1.914,5.475,3.176,8.086c0.868,1.793,3.103,5.867,3.296,6.223c-19.12,8.504-32.471,27.633-32.471,49.908
		c0,30.172,24.464,54.633,54.636,54.633c6.53,0,12.761-1.203,18.564-3.305c0.076,0.219,0.182,0.383,0.284,0.557
		c3.006,11.875,13.728,20.67,26.537,20.67c15.136,0,27.406-12.266,27.406-27.404c0-13.045-9.128-23.943-21.339-26.707
		c0.077-0.297,0.165-0.594,0.248-0.889c0.376-1.109,0.705-2.234,1.011-3.373c0.438-1.424,0.848-2.852,1.083-4.328
		c0.122-0.758,0.228-1.738,0.318-2.676c0.137-1.057,0.242-2.115,0.32-3.189c0.262-0.172,0.634,0,1.168,0.027
		c5.967,0.256,11.913,1.238,17.904,0.92c11.157-0.594,23.155-2.811,33.428-7.342c10.693-4.719,20.904-10.801,29.748-18.471
		c4.217-3.664,8.125-7.709,11.466-12.191c1.603-2.154,3.472-3.973,4.928-6.254c1.234-1.934,2.61-3.734,3.693-5.762
		c0.766-1.428,0.945-2.088,1.69-3.518c0.46-0.891,1.019-1.672,1.355-2.619c0.723-2.031,1.072-4.205,1.146-6.357
		c0.144-4.203-1.158-8.473-3.508-11.967c-2.008-2.984-6.51-5.818-10.055-6.797c-4.188-1.156-8.923-0.922-12.974,0.658
		c-4.444,1.73-7.499,5.547-9.861,9.541c-2.623,4.439-5.101,8.428-8.786,12.107c-6.818,6.822-14.225,12.273-23.208,15.934
		c-34.373,14.012-74.377-5.021-85.736-40.238c-5.278-16.38-3.777-34.829,4.59-50.014c4.408-7.997,10.265-15.08,17.438-20.747
		c3.809-3.007,8.133-5.885,12.585-7.76c4.014-1.692,8.08-2.624,12.193-4.02c3.225-1.092,7.566-1.38,11.012-1.641
		c3.626-0.271,7.382-0.357,10.982,0.231c7.37,1.216,14.997,2.897,21.724,6.338c3.663,1.871,7.659,4.46,10.964,7.081
		c3.288,2.609,6.786,5.892,9.457,9.356c2.098,2.688,3.393,4.677,5.356,7.533c2.06,3.247,5.13,6.768,5.361,10.879
		c-8.514-0.002-17.215,0.058-25.735,0.058c-8.275,0-17.178-1.832-24.89,2.018c-8.009,4.001-14.107,15.676-9.136,24.148
		c2.408,4.097,3.626,7.358,8.178,9.613c4.515,2.236,8.592,2.593,13.562,2.479c11.765-0.264,23.564-0.014,35.336-0.014h18.322
		c5.219,0,10.241,0.314,15.185-1.585C274.543,585.951,278.526,577.866,277.945,569.247 M133.461,718.789
		c0-10.471,8.49-18.959,18.961-18.959c10.476,0,18.968,8.488,18.968,18.959c0,10.479-8.492,18.967-18.968,18.967
		C141.951,737.756,133.461,729.267,133.461,718.789 M106.868,636.842c20.228,0,36.625,16.396,36.625,36.623
		s-16.397,36.625-36.625,36.625c-20.229,0-36.628-16.398-36.628-36.625S86.64,636.842,106.868,636.842 M235.126,552.424
		c0.076,0,0.165,0,0.292,0C235.418,552.424,235.266,552.424,235.126,552.424"/>
	<path fill="#231F20" d="M774.404,616.101h-12.089c-8.137,0-12.2,2.99-12.2,8.979V626c0,5.988,3.951,8.98,11.854,8.98
		c8.289,0,12.436-4.029,12.436-12.088V616.101z M784.647,642.806c-2.379,0-4.374-0.805-5.985-2.416
		c-0.92-0.691-1.689-1.84-2.305-3.453c-3.605,3.914-8.977,5.869-16.115,5.869c-6.83,0-11.97-1.607-15.424-4.834
		c-3.149-2.992-4.721-7.021-4.721-12.09v-0.918c0-5.066,1.688-9.057,5.062-11.973c3.838-3.146,9.212-4.721,16.12-4.721h13.124
		v-2.762c0-4.912-0.771-8.363-2.304-10.361c-1.765-2.302-4.95-3.454-9.554-3.454c-4.3,0-8.211,0.961-11.744,2.877
		c-0.846,0.462-1.648,0.69-2.415,0.69c-1.229,0-2.247-0.441-3.054-1.323c-0.805-0.882-1.208-1.898-1.208-3.05
		c0-1.457,0.692-2.648,2.073-3.569c4.295-2.686,9.938-4.029,16.924-4.029c7.828,0,13.43,1.956,16.805,5.872
		c2.996,3.608,4.492,9.363,4.492,17.269v21.412c0,3.609,1.072,6.023,3.22,7.25c1.307,0.848,1.962,1.961,1.962,3.338
		C789.601,641.351,787.948,642.806,784.647,642.806 M728.644,641.369c-0.961,0.961-2.169,1.438-3.627,1.438
		c-1.382,0-2.553-0.477-3.513-1.438c-0.96-0.957-1.438-2.168-1.438-3.627v-32.465c0-4.064-0.73-7.057-2.188-8.979
		c-1.765-2.302-4.679-3.452-8.747-3.452c-6.524,0-11.166,2.415-13.932,7.25v37.645c0,1.459-0.498,2.67-1.496,3.627
		c-0.998,0.961-2.185,1.438-3.565,1.438c-1.385,0-2.576-0.5-3.569-1.494c-0.998-0.996-1.496-2.188-1.496-3.57v-38.795
		c0-3.607-1.191-6.024-3.57-7.252c-1.307-0.69-1.957-1.803-1.957-3.339c0-2.914,1.648-4.375,4.95-4.375
		c2.147,0,4.22,0.806,6.216,2.418c1.149,1.151,1.994,2.417,2.535,3.8c4.217-4.605,10.205-6.908,17.958-6.908
		c12.585,0,18.878,7.023,18.878,21.069v33.383C730.081,639.201,729.6,640.412,728.644,641.369 M659.05,616.101h-12.086
		c-8.136,0-12.204,2.99-12.204,8.979V626c0,5.988,3.952,8.98,11.858,8.98c8.289,0,12.432-4.029,12.432-12.088V616.101z
		 M669.297,642.806c-2.378,0-4.373-0.805-5.985-2.416c-0.924-0.691-1.689-1.84-2.305-3.453c-3.605,3.914-8.977,5.869-16.115,5.869
		c-6.83,0-11.97-1.607-15.424-4.834c-3.149-2.992-4.72-7.021-4.72-12.09v-0.918c0-5.066,1.686-9.057,5.065-11.973
		c3.834-3.146,9.208-4.721,16.116-4.721h13.12v-2.762c0-4.912-0.767-8.363-2.3-10.361c-1.769-2.302-4.95-3.454-9.555-3.454
		c-4.299,0-8.214,0.961-11.743,2.877c-0.845,0.462-1.652,0.69-2.42,0.69c-1.229,0-2.242-0.441-3.05-1.323
		c-0.804-0.882-1.208-1.898-1.208-3.05c0-1.457,0.693-2.648,2.074-3.569c4.295-2.686,9.938-4.029,16.92-4.029
		c7.832,0,13.429,1.956,16.809,5.872c2.992,3.608,4.488,9.363,4.488,17.269v21.412c0,3.609,1.076,6.023,3.229,7.25
		c1.303,0.848,1.953,1.961,1.953,3.338C674.247,641.351,672.599,642.806,669.297,642.806 M608.166,606.199
		c0-9.746-4.18-14.62-12.548-14.62c-8.594,0-12.893,4.874-12.893,14.62v1.959h25.44V606.199z M617.955,612.185
		c0,2.609-1.27,3.916-3.8,3.916h-31.43v3.109c0,9.975,4.336,14.965,13.008,14.965c5.528,0,10.322-1.074,14.395-3.225
		c0.535-0.305,1.108-0.461,1.723-0.461c1.154,0,2.11,0.461,2.881,1.383c0.768,0.918,1.15,1.955,1.15,3.107
		c0,1.611-0.771,2.84-2.305,3.684c-5.217,2.764-11.281,4.143-18.189,4.143c-7.749,0-13.581-2.416-17.496-7.252
		c-3.455-4.221-5.182-9.939-5.182-17.152v-10.705c0-7.213,1.764-12.931,5.297-17.152c3.989-4.835,9.785-7.255,17.381-7.255
		c7.906,0,13.779,2.42,17.617,7.255c3.297,4.067,4.95,9.708,4.95,16.919V612.185z M552.451,605.969
		c0-9.283-4.222-13.928-12.663-13.928c-4.072,0-7.941,1.61-11.627,4.836v31.885c3.454,3.531,7.443,5.295,11.974,5.295
		c8.21,0,12.316-5.176,12.316-15.539V605.969z M541.859,642.806c-5.219,0-9.781-1.494-13.697-4.488v19.801
		c0,1.459-0.499,2.666-1.496,3.627c-0.998,0.957-2.189,1.439-3.57,1.439s-2.551-0.482-3.512-1.439
		c-0.96-0.961-1.438-2.168-1.438-3.627v-59.865c0-3.682-1.076-6.099-3.225-7.25c-1.307-0.69-1.957-1.803-1.957-3.339
		c0-2.916,1.648-4.375,4.95-4.375c2.226,0,4.258,0.806,6.101,2.42c0.767,0.688,1.496,1.57,2.188,2.646
		c4.679-3.377,9.711-5.065,15.081-5.065c14.196,0,21.299,7.753,21.299,23.256v10.475
		C562.583,634.215,555.675,642.806,541.859,642.806 M494.663,607.121c0-9.67-4.373-14.504-13.125-14.504
		c-8.672,0-13.008,4.834-13.008,14.504v11.855c0,9.748,4.336,14.621,13.008,14.621c8.752,0,13.125-4.873,13.125-14.621V607.121z
		 M499.382,635.787c-3.99,4.68-9.941,7.02-17.844,7.02c-7.826,0-13.737-2.34-17.727-7.02c-3.607-4.221-5.412-9.826-5.412-16.811
		v-11.855c0-6.982,1.805-12.586,5.412-16.807c3.989-4.68,9.9-7.023,17.727-7.023c7.902,0,13.854,2.344,17.844,7.023
		c3.607,4.221,5.412,9.825,5.412,16.807v11.855C504.794,625.961,502.99,631.566,499.382,635.787 M451.03,593.651
		c-0.614-0.074-1.266-0.171-1.954-0.286c-0.692-0.115-1.364-0.213-2.016-0.289c-0.65-0.073-1.211-0.115-1.67-0.115
		c-7.061,0-11.322,3.493-12.777,10.475v34.307c0,1.459-0.502,2.67-1.496,3.627c-0.998,0.961-2.188,1.438-3.569,1.438
		s-2.572-0.5-3.569-1.494c-0.998-0.996-1.496-2.188-1.496-3.57v-38.795c0-3.607-1.192-6.024-3.57-7.252
		c-1.307-0.69-1.958-1.803-1.958-3.339c0-2.914,1.651-4.375,4.951-4.375c0.845,0,1.38,0.039,1.612,0.115
		c3.758,0.999,6.33,3.38,7.711,7.137c3.764-5.294,9.057-7.942,15.89-7.942c3.146,0,5.718,0.46,7.712,1.383
		c1.611,0.844,2.42,2.187,2.42,4.029c0,1.379-0.462,2.572-1.385,3.567c-0.92,1-2.033,1.496-3.339,1.496
		C452.142,593.766,451.644,593.729,451.03,593.651 M405.788,642.806c-2.226,0-4.299-0.805-6.216-2.416
		c-1.076-0.922-1.999-2.34-2.764-4.26c-4.221,4.453-10.17,6.676-17.843,6.676c-12.51,0-18.765-6.98-18.765-20.949v-33.501
		c0-1.38,0.478-2.571,1.438-3.569c0.958-0.995,2.168-1.496,3.627-1.496c1.381,0,2.552,0.501,3.51,1.496
		c0.958,0.998,1.44,2.189,1.44,3.569v32.58c0,4.068,0.728,7.062,2.188,8.98c1.765,2.227,4.679,3.338,8.747,3.338
		c6.678,0,11.319-2.57,13.932-7.713v-37.185c0-1.38,0.496-2.571,1.496-3.569c0.994-0.995,2.185-1.496,3.567-1.496
		s2.57,0.501,3.567,1.496c0.998,0.998,1.496,2.189,1.496,3.569v39.488c0,3.609,1.191,6.023,3.57,7.25
		c1.305,0.693,1.958,1.807,1.958,3.338C410.738,641.351,409.085,642.806,405.788,642.806 M339.134,606.199
		c0-9.746-4.184-14.62-12.546-14.62c-8.599,0-12.894,4.874-12.894,14.62v1.959h25.44V606.199z M348.919,612.185
		c0,2.609-1.266,3.916-3.798,3.916h-31.427v3.109c0,9.975,4.334,14.965,13.009,14.965c5.523,0,10.321-1.074,14.389-3.225
		c0.536-0.305,1.111-0.461,1.727-0.461c1.15,0,2.11,0.461,2.877,1.383c0.767,0.918,1.152,1.955,1.152,3.107
		c0,1.611-0.769,2.84-2.302,3.684c-5.218,2.764-11.281,4.143-18.189,4.143c-7.753,0-13.586-2.416-17.498-7.252
		c-3.454-4.221-5.181-9.939-5.181-17.152v-10.705c0-7.213,1.765-12.931,5.295-17.152c3.992-4.835,9.787-7.255,17.384-7.255
		c7.901,0,13.775,2.42,17.612,7.255c3.302,4.067,4.951,9.708,4.951,16.919V612.185z"/>
	<path fill="#231F20" d="M562.079,552.148v-26.439c0.203-0.082,0.541-0.184,1.01-0.305c0.467-0.124,0.998-0.235,1.592-0.338
		c0.589-0.102,1.212-0.191,1.867-0.274c0.65-0.083,1.285-0.124,1.896-0.124c1.509,0,2.774,0.196,3.797,0.584
		c1.018,0.385,1.834,1.01,2.448,1.864c0.609,0.858,1.047,1.981,1.314,3.368c0.264,1.385,0.396,3.058,0.396,5.019v16.646h5.691
		v-17.87c0-2.164-0.202-4.14-0.609-5.938c-0.408-1.795-1.113-3.334-2.115-4.621c-0.998-1.283-2.332-2.282-4.006-2.998
		c-1.674-0.715-3.775-1.072-6.303-1.072c-1.188,0-2.378,0.113-3.582,0.337c-1.203,0.227-2.337,0.542-3.396,0.95v-16.28l-5.691,0.979
		v46.513H562.079z M538.333,510.47l-5.691,0.979v28.398c0,2.12,0.173,3.987,0.523,5.599c0.346,1.612,0.943,2.969,1.801,4.07
		c0.857,1.103,1.991,1.929,3.396,2.478c1.41,0.55,3.194,0.828,5.359,0.828c1.834,0,3.465-0.217,4.893-0.645
		c1.43-0.429,2.427-0.786,3-1.07l-1.101-4.711c-0.408,0.161-1.134,0.438-2.173,0.824c-1.042,0.388-2.419,0.583-4.134,0.583
		c-0.977,0-1.835-0.123-2.567-0.369c-0.734-0.242-1.348-0.66-1.839-1.253c-0.486-0.593-0.856-1.409-1.101-2.45
		c-0.243-1.038-0.367-2.355-0.367-3.946v-14.688h12.057v-4.773h-12.057V510.47z M524.167,513.559
		c0.713-0.674,1.072-1.58,1.072-2.722c0-1.143-0.359-2.052-1.072-2.726c-0.717-0.674-1.583-1.007-2.602-1.007
		c-1.021,0-1.887,0.333-2.6,1.007c-0.719,0.674-1.072,1.583-1.072,2.726c0,1.142,0.354,2.048,1.072,2.722
		c0.713,0.677,1.578,1.013,2.6,1.013C522.584,514.572,523.45,514.236,524.167,513.559 M524.443,520.323h-5.691v31.825h5.691V520.323
		z M503.389,552.148c1.876-4.202,3.714-8.996,5.507-14.384c1.797-5.384,3.486-11.198,5.078-17.441h-5.873
		c-0.408,1.919-0.899,3.999-1.469,6.243c-0.572,2.245-1.182,4.488-1.838,6.733c-0.65,2.242-1.314,4.406-1.986,6.485
		c-0.672,2.082-1.314,3.897-1.929,5.446c-0.692-1.918-1.378-3.948-2.049-6.09c-0.672-2.141-1.319-4.303-1.929-6.485
		c-0.614-2.185-1.184-4.326-1.715-6.428c-0.527-2.101-0.977-4.068-1.344-5.905h-4.715c-0.408,1.837-0.887,3.805-1.436,5.905
		c-0.552,2.102-1.133,4.243-1.748,6.428c-0.609,2.183-1.252,4.345-1.924,6.485c-0.676,2.142-1.36,4.172-2.053,6.09
		c-0.61-1.549-1.266-3.364-1.958-5.446c-0.692-2.079-1.356-4.243-1.987-6.485c-0.635-2.245-1.236-4.488-1.809-6.733
		c-0.569-2.244-1.06-4.324-1.468-6.243h-6.121c1.591,6.243,3.285,12.058,5.083,17.441c1.792,5.388,3.631,10.182,5.506,14.384h4.959
		c1.142-2.937,2.346-6.294,3.61-10.069c1.261-3.771,2.428-7.699,3.487-11.78c1.06,4.081,2.234,8.009,3.52,11.78
		c1.286,3.775,2.498,7.133,3.64,10.069H503.389z M430.808,533.175c0.119-1.101,0.375-2.183,0.762-3.244
		c0.389-1.062,0.928-1.997,1.624-2.815c0.692-0.815,1.538-1.479,2.54-1.986c0.997-0.511,2.15-0.767,3.458-0.767
		c2.325,0,4.15,0.824,5.478,2.478c1.323,1.654,1.966,3.766,1.925,6.335H430.808z M425.697,542.936c0.631,2.02,1.6,3.765,2.906,5.234
		c1.307,1.468,2.967,2.621,4.986,3.456c2.02,0.84,4.419,1.255,7.193,1.255c2.201,0,4.171-0.203,5.906-0.611
		c1.731-0.406,2.947-0.796,3.64-1.163l-0.796-4.773c-0.691,0.328-1.723,0.662-3.091,1.009c-1.364,0.348-3.05,0.521-5.05,0.521
		c-3.549,0-6.158-0.857-7.831-2.57c-1.673-1.715-2.634-4.223-2.877-7.529h21.788c0.037-0.325,0.062-0.682,0.062-1.071v-0.947
		c0-5.468-1.143-9.536-3.43-12.209c-2.283-2.674-5.569-4.009-9.852-4.009c-1.838,0-3.636,0.347-5.387,1.041
		c-1.752,0.694-3.307,1.735-4.65,3.12c-1.348,1.387-2.428,3.133-3.244,5.232c-0.82,2.103-1.224,4.561-1.224,7.376
		C424.748,538.704,425.062,540.915,425.697,542.936 M412.261,521.731c-0.694-0.449-1.743-0.917-3.151-1.408
		c-1.408-0.489-3.029-0.733-4.866-0.733c-2.286,0-4.314,0.406-6.09,1.225c-1.772,0.816-3.272,1.958-4.497,3.427
		c-1.225,1.468-2.154,3.222-2.785,5.263c-0.632,2.042-0.95,4.284-0.95,6.732c0,2.57,0.379,4.886,1.133,6.945
		c0.754,2.061,1.826,3.805,3.211,5.233c1.387,1.429,3.061,2.529,5.021,3.305c1.958,0.775,4.161,1.162,6.607,1.162
		c2.654,0,5-0.184,7.04-0.549c2.041-0.367,3.712-0.734,5.017-1.104v-46.573l-5.69,0.979V521.731z M412.261,547.192
		c-0.571,0.161-1.374,0.315-2.417,0.457c-1.039,0.143-2.335,0.215-3.887,0.215c-3.059,0-5.507-1.009-7.343-3.027
		c-1.836-2.021-2.756-4.89-2.756-8.601c0-1.633,0.165-3.161,0.491-4.589c0.328-1.429,0.857-2.665,1.591-3.703
		c0.734-1.042,1.686-1.855,2.848-2.45c1.163-0.591,2.56-0.886,4.19-0.886c1.552,0,2.978,0.267,4.285,0.796
		c1.307,0.529,2.304,1.079,2.999,1.652V547.192z M365.691,519.986c-1.715,0.309-2.939,0.622-3.672,0.95l0.671,4.713
		c0.693-0.287,1.744-0.562,3.151-0.829c1.408-0.264,3.05-0.395,4.928-0.395c1.47,0,2.663,0.212,3.58,0.641
		c0.917,0.428,1.643,0.999,2.175,1.713c0.527,0.717,0.896,1.53,1.101,2.448c0.202,0.918,0.305,1.846,0.305,2.786v1.591
		c-0.165-0.039-0.449-0.102-0.855-0.183c-0.411-0.083-0.889-0.174-1.441-0.277c-0.55-0.101-1.129-0.184-1.743-0.242
		c-0.61-0.064-1.204-0.094-1.773-0.094c-1.797,0-3.512,0.184-5.142,0.551c-1.634,0.367-3.06,0.939-4.285,1.715
		c-1.224,0.774-2.192,1.795-2.908,3.06c-0.713,1.264-1.069,2.775-1.069,4.528c0,1.837,0.305,3.406,0.919,4.713
		c0.61,1.308,1.467,2.354,2.568,3.149c1.103,0.798,2.407,1.379,3.92,1.746c1.509,0.369,3.16,0.552,4.954,0.552
		c1.266,0,2.539-0.051,3.825-0.154c1.286-0.102,2.481-0.215,3.582-0.335c1.101-0.122,2.09-0.256,2.968-0.401
		c0.878-0.14,1.562-0.251,2.051-0.333v-19.893c0-1.795-0.204-3.437-0.612-4.927c-0.408-1.486-1.092-2.772-2.053-3.854
		c-0.956-1.082-2.222-1.917-3.792-2.508c-1.57-0.594-3.499-0.889-5.783-0.889C369.259,519.528,367.404,519.681,365.691,519.986
		 M366.424,546.855c-1.306-0.794-1.958-2.213-1.958-4.255c0-1.101,0.264-1.989,0.795-2.663c0.527-0.674,1.191-1.204,1.987-1.591
		c0.795-0.386,1.673-0.641,2.632-0.765c0.958-0.122,1.869-0.184,2.725-0.184c1.304,0,2.417,0.072,3.334,0.217
		c0.917,0.14,1.581,0.313,1.989,0.519v9.485c-0.692,0.162-1.56,0.275-2.601,0.337c-1.042,0.061-2.234,0.092-3.578,0.092
		C369.503,548.047,367.727,547.649,366.424,546.855 M309.506,552.148h5.692V525.28c0.163-0.038,0.49-0.101,0.981-0.184
		c0.488-0.082,1.028-0.152,1.62-0.214c0.593-0.062,1.216-0.111,1.867-0.152c0.651-0.039,1.266-0.062,1.836-0.062
		c1.346,0,2.458,0.215,3.334,0.644c0.878,0.429,1.572,1.092,2.08,1.988c0.511,0.898,0.869,2.02,1.071,3.367
		c0.206,1.347,0.308,2.958,0.308,4.836v16.646h5.692v-17.87c0-1.387-0.083-2.714-0.245-3.979c-0.163-1.264-0.408-2.426-0.734-3.487
		c0.45-0.408,1.294-0.867,2.539-1.378c1.245-0.51,2.823-0.766,4.744-0.766c1.385,0,2.519,0.215,3.395,0.644
		c0.878,0.429,1.572,1.092,2.082,1.988c0.509,0.898,0.855,2.02,1.041,3.367c0.181,1.347,0.276,2.958,0.276,4.836v16.646h5.692
		v-17.87c0-2.121-0.155-4.08-0.462-5.875c-0.305-1.798-0.896-3.346-1.774-4.652c-0.875-1.307-2.088-2.313-3.642-3.029
		c-1.55-0.715-3.549-1.072-5.997-1.072c-1.264,0-2.448,0.134-3.549,0.398c-1.101,0.266-2.102,0.57-2.999,0.919
		c-0.896,0.347-1.653,0.703-2.266,1.072c-0.609,0.367-1.061,0.651-1.345,0.854c-0.938-1.062-2.102-1.867-3.489-2.417
		c-1.385-0.553-3.1-0.827-5.14-0.827c-2.815,0-5.296,0.185-7.436,0.553c-2.142,0.367-3.866,0.714-5.173,1.039V552.148z"/>
</g>
</svg>
